<svg xmlns="http://www.w3.org/2000/svg" width="540.25" height="400" viewBox="0 0 540.25 400">
  <g id="Application_systems:_Support_and_Monitoring" data-name="Application systems: Support and Monitoring" transform="translate(-415.75 -2801.583)">
    <rect id="Rectangle_32" data-name="Rectangle 32" width="540" height="400" transform="translate(416 2801.583)" fill="none"/>
    <g id="Group_61" data-name="Group 61" transform="translate(415.7 2822.089)">
      <rect id="Rectangle_32-2" data-name="Rectangle_32" width="511" height="378" transform="translate(0.3 0.494)" fill="none"/>
      <g id="Group_226" data-name="Group 226" transform="translate(302.622 223.379)">
        <path id="Path_307" data-name="Path 307" d="M436.66,315.488c-5.394,6.718-24.508,5.772-45.514,1.892a69.832,69.832,0,0,0-26.778-7.475c-4.542-4.637-9.462-9.746-14.761-14.856-9.178-8.989-19.4-18.262-29.806-26.778a4.266,4.266,0,0,1,1.325-.946c4.258-2.271,7.854-1.23,11.828,3.028-1.8-10.219-1.8-22.615,6.34-24.7,8.327-2.176,13.058,3.028,17.978,15.613-.189-10.787,1.892-24.6,10.882-25.17,10.03-.568,13.342,7.665,15.8,25.927,3.123-10.219,11.733-28.2,21.858-24.6,9.935,3.5,9.273,13.058,3.785,32.551,5.394-8.422,16.275-20.912,23.561-16.181,6.908,4.542,5.015,11.828-2.649,25.548,5.11-2.176,10.314-2.46,14.572,1.7C454.355,290.129,449.813,299.023,436.66,315.488Z" transform="translate(-319.8 -236.071)" fill="#a5e9ff"/>
        <path id="Path_308" data-name="Path 308" d="M459.082,313.729l-9.462,61.6-34.821-.095a36.706,36.706,0,0,0,4.447-14.667c1.419-24.034-22.237-44.946-53.084-47.312-4.542-4.637-9.462-9.746-14.761-14.856l97.273.473A13.135,13.135,0,0,1,459.082,313.729Z" transform="translate(-321.499 -239.422)" fill="#70afde"/>
      </g>
      <g id="Group_40" transform="translate(0.3 116.599)">
        <path id="Path_309" data-name="Path 309" d="M226.654,177a250.119,250.119,0,0,1,33.118,9.935c14,5.2,29.806,15.9,45.041,28.387,10.409,8.516,20.628,17.884,29.806,26.778,5.3,5.2,10.314,10.219,14.761,14.856a69.357,69.357,0,0,1,26.778,7.475c16.654,8.611,27.252,23.561,26.305,39.837a36.7,36.7,0,0,1-4.447,14.667c0,.095-.095.189-.095.284H55.385a65.617,65.617,0,0,1-7.1-64.912h0" transform="translate(-2.585 -76.415)" fill="none" stroke="#000" stroke-linecap="round" stroke-linejoin="round" stroke-width="0.5"/>
        <path id="Path_310" data-name="Path 310" d="M85.7,221.988a52.488,52.488,0,0,1,14.477-2.082,39.863,39.863,0,0,1,5.867.378c10.5-14.572,22.615-26.873,35.295-34.727,14.194-8.8,30.753-12.68,48.258-13.058" transform="translate(-4.891 -76.173)" fill="none" stroke="#000" stroke-linecap="round" stroke-linejoin="round" stroke-width="0.5"/>
        <path id="Path_81" d="M379.473,325.32s-13.153-43.432-53.746-35.673S229.4,314.06,229.4,314.06v11.26H379.473Z" transform="translate(-12.617 -82.422)" fill="none" stroke="#000" stroke-linecap="round" stroke-linejoin="round" stroke-width="0.5"/>
        <path id="Path_311" data-name="Path 311" d="M34.478,123.689c-.095-.095-.284-.095-.378-.189" transform="translate(-2.117 -73.539)" fill="none" stroke="#000" stroke-linecap="round" stroke-linejoin="round" stroke-width="0.5"/>
        <path id="Path_312" data-name="Path 312" d="M52.6,156.9h0" transform="translate(-3.112 -75.334)" fill="none" stroke="#000" stroke-linecap="round" stroke-linejoin="round" stroke-width="0.5"/>
        <path id="Path_313" data-name="Path 313" d="M47.151,130.911a17.062,17.062,0,0,1-.473-1.8c-6.718-22.8-12.206-28.009-15.424-25.643-2.271,1.7.757,11.166,3.028,19.114.662,2.271,1.325,4.447,1.7,6.245h0c0,.095.095.284.095.378" transform="translate(-1.921 -72.434)" fill="none" stroke="#000" stroke-linecap="round" stroke-linejoin="round" stroke-width="0.5"/>
        <path id="Path_314" data-name="Path 314" d="M47.151,130.911a17.062,17.062,0,0,1-.473-1.8c-6.718-22.8-12.206-28.009-15.424-25.643-2.271,1.7.757,11.166,3.028,19.114.662,2.271,1.325,4.447,1.7,6.245h0c0,.095.095.284.095.378" transform="translate(-1.921 -72.434)" fill="none" stroke="#000" stroke-linecap="round" stroke-linejoin="round" stroke-width="0.5"/>
        <path id="Path_85" d="M15.2,126.687c-3.5-5.677-9.273-5.394-6.245,4.258,2.933,9.462,5.11,21.669,10.6,27.252s7.475,8.043,7.475,8.043S38,207.306,44.246,241.56c8.989,49.394,26.116,58.951,42.107,53.273s18.925-28.009-2.839-71.441-33.308-68.224-33.308-68.224" transform="translate(-0.719 -73.509)" fill="none" stroke="#000" stroke-linecap="round" stroke-linejoin="round" stroke-width="0.5"/>
        <path id="Path_86" d="M15.2,126.687c-3.5-5.677-9.273-5.394-6.245,4.258,2.933,9.462,5.11,21.669,10.6,27.252s7.475,8.043,7.475,8.043S38,207.306,44.246,241.56c8.989,49.394,26.116,58.951,42.107,53.273s18.925-28.009-2.839-71.441-33.308-68.224-33.308-68.224" transform="translate(-0.719 -73.509)" fill="none" stroke="#000" stroke-linecap="round" stroke-linejoin="round" stroke-width="0.5"/>
        <path id="Path_87" d="M52.353,155.055c3.217-2.176,2.366-14.288,5.961-19.682,4.447-6.718,8.705-13.72.568-12.68-7,.852-9.178,7-10.882,9.273" transform="translate(-2.865 -73.49)" fill="none" stroke="#000" stroke-linecap="round" stroke-linejoin="round" stroke-width="0.5"/>
        <path id="Path_88" d="M52.353,155.055c3.217-2.176,2.366-14.288,5.961-19.682,4.447-6.718,8.705-13.72.568-12.68-7,.852-9.178,7-10.882,9.273" transform="translate(-2.865 -73.49)" fill="none" stroke="#000" stroke-linecap="round" stroke-linejoin="round" stroke-width="0.5"/>
        <path id="Path_89" d="M19.4,136.214s-6.245-15.045-8.327-22.047c-2.271-7.665,5.772-8.705,9.557,2.271" transform="translate(-0.858 -72.722)" fill="none" stroke="#000" stroke-linecap="round" stroke-linejoin="round" stroke-width="0.5"/>
        <path id="Path_90" d="M19.4,136.214s-6.245-15.045-8.327-22.047c-2.271-7.665,5.772-8.705,9.557,2.271" transform="translate(-0.858 -72.722)" fill="none" stroke="#000" stroke-linecap="round" stroke-linejoin="round" stroke-width="0.5"/>
        <path id="Path_315" data-name="Path 315" d="M35.471,129.13c0-.095-.095-.189-.095-.284v-.095c-.757-2.271-1.419-4.447-2.082-6.434-5.015-14.951-8.421-22.426-12.774-20.533-2.649,1.23-1.135,8.327,1.135,15.424,2.366,7.381,5.583,14.667,5.583,14.667" transform="translate(-1.312 -72.356)" fill="none" stroke="#000" stroke-linecap="round" stroke-linejoin="round" stroke-width="0.5"/>
        <path id="Path_316" data-name="Path 316" d="M35.471,129.13c0-.095-.095-.189-.095-.284v-.095c-.757-2.271-1.419-4.447-2.082-6.434-5.015-14.951-8.421-22.426-12.774-20.533-2.649,1.23-1.135,8.327,1.135,15.424,2.366,7.381,5.583,14.667,5.583,14.667" transform="translate(-1.312 -72.356)" fill="none" stroke="#000" stroke-linecap="round" stroke-linejoin="round" stroke-width="0.5"/>
        <path id="Path_317" data-name="Path 317" d="M199.071,152.3l-3.6,19.114-2.082,11.26s-2.839,13.815,20.439,16.843c23.372,3.123,20.439-13.72,20.439-13.72l.568-10.125.757-12.963" transform="translate(-10.676 -75.087)" fill="none" stroke="#000" stroke-linecap="round" stroke-linejoin="round" stroke-width="0.5"/>
        <path id="Path_318" data-name="Path 318" d="M199.071,152.3l-3.6,19.114-2.082,11.26s-2.839,13.815,20.439,16.843c23.372,3.123,20.439-13.72,20.439-13.72l.568-10.125.757-12.963" transform="translate(-10.676 -75.087)" fill="none" stroke="#000" stroke-linecap="round" stroke-linejoin="round" stroke-width="0.5"/>
        <path id="Path_319" data-name="Path 319" d="M188.92,128.243c-4.542.662-17.884,1.419-17.221-14.194.568-15.424,12.774-13.626,17.127-12.49.946.284,1.609.473,1.609.473" transform="translate(-9.514 -72.32)" fill="none" stroke="#000" stroke-linecap="round" stroke-linejoin="round" stroke-width="0.5"/>
        <path id="Path_320" data-name="Path 320" d="M188.92,128.243c-4.542.662-17.884,1.419-17.221-14.194.568-15.424,12.774-13.626,17.127-12.49.946.284,1.609.473,1.609.473" transform="translate(-9.514 -72.32)" fill="none" stroke="#000" stroke-linecap="round" stroke-linejoin="round" stroke-width="0.5"/>
        <path id="Path_97" d="M225.284,159.741h0a35.4,35.4,0,0,0,35.389-35.389V93.41a22.715,22.715,0,0,0-22.71-22.71H207.021A17.284,17.284,0,0,0,189.8,87.921v36.43a35.477,35.477,0,0,0,35.484,35.389h0" transform="translate(-10.488 -70.7)" fill="none" stroke="#000" stroke-linecap="round" stroke-linejoin="round" stroke-width="0.5"/>
        <path id="Path_98" d="M225.284,159.741h0a35.4,35.4,0,0,0,35.389-35.389V93.41a22.715,22.715,0,0,0-22.71-22.71H207.021A17.284,17.284,0,0,0,189.8,87.921v36.43a35.477,35.477,0,0,0,35.484,35.389Z" transform="translate(-10.488 -70.7)" fill="none" stroke="#000" stroke-linecap="round" stroke-linejoin="round" stroke-width="0.5"/>
        <path id="Path_101" d="M238.461,104.9l-.473,28.576s-2.082,3.028-5.488-3.217" transform="translate(-12.784 -72.539)" fill="none" stroke="#000" stroke-linecap="round" stroke-linejoin="round" stroke-width="0.5"/>
        <path id="Path_102" d="M237.955,141.419c-2.555,3.028-8.611,2.555-14.667-1.419,0,0-2.366,7.665,9.273,8.8" transform="translate(-12.278 -74.426)" fill="none" stroke="#000" stroke-linecap="round" stroke-linejoin="round" stroke-width="0.5"/>
        <path id="Path_103" d="M226.335,95.045c-.378-.095-4.069-5.488-9.935-.852" transform="translate(-11.918 -71.862)" fill="none" stroke="#000" stroke-linecap="round" stroke-linejoin="round" stroke-width="0.5"/>
        <path id="Path_106" d="M257.035,94.723c-.378-.095-5.11-6.624-9.935-.473" transform="translate(-13.569 -71.824)" fill="none" stroke="#000" stroke-linecap="round" stroke-linejoin="round" stroke-width="0.5"/>
        <circle id="Ellipse_17" cx="16.086" cy="16.086" r="16.086" transform="translate(186.503 25.548)" fill="none" stroke="#000" stroke-linecap="round" stroke-linejoin="round" stroke-width="0.5"/>
        <line id="Line_3" x1="10.503" transform="translate(219.054 41.256)" fill="none" stroke="#000" stroke-linecap="round" stroke-linejoin="round" stroke-width="0.5"/>
        <line id="Line_4" x1="9.084" y1="5.204" transform="translate(179.406 28.671)" fill="none" stroke="#000" stroke-linecap="round" stroke-linejoin="round" stroke-width="0.5"/>
        <circle id="Ellipse_18" cx="16.086" cy="16.086" r="16.086" transform="translate(230.125 25.548)" fill="none" stroke="#000" stroke-linecap="round" stroke-linejoin="round" stroke-width="0.5"/>
        <line id="Line_5" x1="454.193" transform="translate(0 242.899)" fill="none" stroke="#000" stroke-linecap="round" stroke-linejoin="round" stroke-width="0.5"/>
      </g>
      <g id="Group_227" data-name="Group 227" transform="translate(119.733 48.108)">
        <path id="Path_99" d="M181.2,196.082a124.538,124.538,0,0,1,2.176-22.994v-.473a5.048,5.048,0,0,1,5.015-5.015h0v5.015l-.095,5.015a5.1,5.1,0,0,1-2.839-.946c-1.609,10.125-4.826,40.31,8.705,66.047,2.46,4.731,4.826,9.084,7.1,13.247,12.774,23.845,21.2,39.553,21.006,53.652a1.294,1.294,0,0,1-1.325,1.325h0a1.294,1.294,0,0,1-1.325-1.325c.189-13.437-8.138-28.86-20.723-52.421-2.271-4.258-4.542-8.516-7.1-13.342-8.895-16.748-10.692-35.295-10.6-47.785" transform="translate(-129.459 -57.119)" fill="#1e3c6b"/>
        <path id="Path_100" d="M266.47,178.268a5.475,5.475,0,0,1-1.987.662V168.9a4.931,4.931,0,0,1,4.447,4.258,1.782,1.782,0,0,1,.189.757c0,1.987,0,49.488-14.1,70.873-14.383,21.953-18.83,34.443-19.871,55.639a1.507,1.507,0,0,1-1.325,1.325h0a1.353,1.353,0,0,1-1.325-1.325c1.041-21.858,5.583-34.632,20.344-57.058,11.26-17.127,13.247-52.8,13.626-65.1" transform="translate(-132.217 -57.188)" fill="#1e3c6b"/>
        <path id="Path_104" d="M214.1,166.106c0,1.892.946,3.406,2.176,3.406s2.176-1.514,2.176-3.406-.946-3.406-2.176-3.406-2.176,1.514-2.176,3.406" transform="translate(-131.228 -56.855)"/>
        <path id="Path_105" d="M248,167.106c0,1.892.946,3.406,2.176,3.406s2.176-1.514,2.176-3.406-.946-3.406-2.176-3.406S248,165.214,248,167.106" transform="translate(-133.051 -56.909)"/>
        <path id="Path_107" d="M130.286,92.531c10.882-31.131,41.729-48.637,68.981-39.08,22.331,7.759,35.2,31.415,33.118,56.869.095,1.041.095,1.892.189,2.744,31.037,7.286,26.021,30.469,26.021,30.469s-15.424,2.933-28.009-15.613a111.916,111.916,0,0,1-42.77,19.776,9.712,9.712,0,0,1-1.325-.378v1.325a24.053,24.053,0,0,0-4.447-.662c-7.191-.852-12.4,4.92-12.774,13.247,0,.852.662,7.286.568,7.286a13.726,13.726,0,0,1-1.987,7.191c-3.028,4.92-9.178,7.948-18.357,8.989h-.189a1.327,1.327,0,0,1-1.325-1.135,1.284,1.284,0,0,1,1.135-1.419c8.327-.946,13.815-3.6,16.464-7.759a11.21,11.21,0,0,0,1.609-4.92,15.668,15.668,0,0,1-12.4,5.488,21.819,21.819,0,0,1-4.92-.568,1.312,1.312,0,0,1-1.041-1.514v-.095a1.312,1.312,0,0,1,1.514-1.041h.095c8.043,1.7,12.49-1.419,14.761-4.069a33.917,33.917,0,0,1-5.3-1.514C132.652,156.5,119.5,123.568,130.286,92.531Z" transform="translate(-126.519 -50.841)"/>
        <path id="Path_108" d="M143.031,358.936h9.178l4.447-66.615a9.073,9.073,0,0,1,8.989-8.421H293.388a7.814,7.814,0,0,1,7.948,7.665v.757l-5.015,73.806a9.073,9.073,0,0,1-8.989,8.421l-144.3-.189a4.745,4.745,0,0,1-4.731-4.731v-5.867a4.766,4.766,0,0,1,4.731-4.826h0" transform="translate(-127.153 -63.371)" fill="#a5e9ff"/>
      </g>
      <g id="Group_89" transform="translate(313.404 78.092)">
        <path id="Path_321" data-name="Path 321" d="M82.161-1.427h0L4.57-1.048a7.148,7.148,0,0,0-7.1,7.1V46.737a5.151,5.151,0,0,0,.189,1.892c.284-.284.946-1.041,1.514-1.7,2.271-2.839,6.434-8.232,12.963-8.232l70.021-.378a7.148,7.148,0,0,0,7.1-7.1V5.67a7.148,7.148,0,0,0-7.1-7.1m0-.473a7.592,7.592,0,0,1,7.57,7.57V31.218a7.592,7.592,0,0,1-7.57,7.57l-70.021.378C.974,39.167-3,55.158-3,46.737V6.048a7.592,7.592,0,0,1,7.57-7.57Z" transform="translate(3 1.9)"/>
        <path id="Path_322" data-name="Path 322" d="M52.8,16.831H12.966a2.366,2.366,0,0,1,0-4.731H52.8a2.366,2.366,0,0,1,0,4.731Z" transform="translate(2.269 1.147)" fill="#1e3c6b"/>
        <path id="Path_323" data-name="Path 323" d="M75.133,28.431H12.966a2.366,2.366,0,0,1,0-4.731H75.228a2.343,2.343,0,0,1,2.366,2.366A2.424,2.424,0,0,1,75.133,28.431Z" transform="translate(2.269 0.524)" fill="#1e3c6b"/>
      </g>
      <g id="Group_90" transform="translate(353.483 19.921)">
        <path id="Path_324" data-name="Path 324" d="M92.38,50.918c-.284,0-1.041-.946-1.8-1.892-2.271-2.839-6.34-8.138-12.869-8.138L7.881,40.51A7.39,7.39,0,0,1,.5,33.129V7.581A7.371,7.371,0,0,1,7.786.2l77.5.378a7.39,7.39,0,0,1,7.381,7.381V48.647a8.732,8.732,0,0,1-.095,1.8C92.474,50.824,92.474,50.918,92.38,50.918Z" transform="translate(-0.5 -0.2)" fill="none" stroke="#000" stroke-miterlimit="10" stroke-width="0.5"/>
        <path id="Path_325" data-name="Path 325" d="M78.528,17.231H16.266a2.366,2.366,0,0,1,0-4.731H78.528a2.366,2.366,0,0,1,0,4.731Z" transform="translate(-1.22 -0.861)" fill="#1e3c6b"/>
        <path id="Path_326" data-name="Path 326" d="M50.614,30.231H16.266a2.366,2.366,0,0,1,0-4.731H50.614a2.366,2.366,0,1,1,0,4.731Z" transform="translate(-1.22 -1.56)" fill="#1e3c6b"/>
      </g>
    </g>
  </g>
</svg>
