<svg xmlns="http://www.w3.org/2000/svg" width="540" height="400" viewBox="0 0 540 400">
  <g id="Customization_and_configuration_of_the_application_" data-name="Customization and configuration of the application " transform="translate(-9759 -3595.583)">
    <rect id="Rectangle_33" data-name="Rectangle 33" width="540" height="400" transform="translate(9759 3595.583)" fill="none"/>
    <g id="Art_2" data-name="Art 2" transform="translate(9731.617 3595.537)">
      <g id="smartphone" transform="translate(8489.855 2448.547)">
        <path id="Subtraction_2" data-name="Subtraction 2" d="M5929.54,985.7h-182.1a10.072,10.072,0,0,1-10.1-10.1v-338a10.072,10.072,0,0,1,10.1-10.1h182.1a10.072,10.072,0,0,1,10.1,10.1v338a10.138,10.138,0,0,1-10.1,10.1Zm-76.4-40.6a14.7,14.7,0,1,0,14.7,14.7A14.717,14.717,0,0,0,5853.141,945.1Zm-61-294.1a14.417,14.417,0,0,0-14.4,14.4V921.2a14.416,14.416,0,0,0,14.4,14.4h115.4a14.416,14.416,0,0,0,14.4-14.4V665.4a14.417,14.417,0,0,0-14.4-14.4Z" transform="translate(-14062.24 -3055)" fill="#a5e9ff"/>
        <path id="button-2" d="M-8209.1-2084.2a10.926,10.926,0,0,1-10.9-10.9,10.926,10.926,0,0,1,10.9-10.9,10.926,10.926,0,0,1,10.9,10.9A10.927,10.927,0,0,1-8209.1-2084.2Z" fill="#1e3c6b"/>
        <circle id="shape_4_" cx="3.5" cy="3.5" r="3.5" transform="translate(-8241.5 -2417.9)"/>
        <path id="shape_3_" d="M-8188.4-2411.4h-36.9a3.008,3.008,0,0,1-3-3h0a3.009,3.009,0,0,1,3-3h36.9a3.008,3.008,0,0,1,3,3h0A2.947,2.947,0,0,1-8188.4-2411.4Z"/>
        <path id="line_6_" d="M-8294.4-2071.4a14.383,14.383,0,0,1-14.4-14.3h0v-324.6a14.383,14.383,0,0,1,14.4-14.3" fill="none" stroke="#000" stroke-linecap="round" stroke-linejoin="round" stroke-width="0.5"/>
        <path id="shape_2_" d="M-8317.9-2373.8h0a2.9,2.9,0,0,1-2.9-2.9h0V-2405a2.9,2.9,0,0,1,2.9-2.9h0a2.9,2.9,0,0,1,2.9,2.9h0v28.3a2.9,2.9,0,0,1-2.9,2.9Z" fill="#50abca"/>
        <path id="shape_2_2" d="M-8317.9-2334.4h0a2.9,2.9,0,0,1-2.9-2.9h0v-28.3a2.9,2.9,0,0,1,2.9-2.9h0a2.9,2.9,0,0,1,2.9,2.9h0v28.3a2.9,2.9,0,0,1-2.9,2.9Z" fill="#50abca"/>
        <g id="Group_63" transform="translate(73.201 57.39)">
          <circle id="Ellipse_19" cx="32.5" cy="32.5" r="32.5" transform="translate(-8325 -2405.8)" fill="#eff5ff"/>
          <path id="Union_1" d="M-8293.9-2357.5l-16.3-16.3a8.028,8.028,0,0,1,0-11.3,8.027,8.027,0,0,1,11.3,0l10.6,10.6,31.1-31.1a8.027,8.027,0,0,1,11.3,0,8.028,8.028,0,0,1,0,11.3l-36.8,36.8A7.9,7.9,0,0,1-8293.9-2357.5Z" fill="#1e3c6b"/>
        </g>
      </g>
      <g id="Group_58" transform="translate(8581.937 2582.15)">
        <path id="Path_301" data-name="Path 301" d="M-8110.3-2203h-129.1l25.3-90-9.6,4.3a13.193,13.193,0,0,1-14.8-3.7l-56.5-65,9.7-9.9,12.5-12.8,1.6-1.7,44.5,47.3,34.8-12.4a34.058,34.058,0,0,1,21.4-.5l9.9,5.2" fill="none" stroke="#000" stroke-linecap="round" stroke-linejoin="round" stroke-width="0.5"/>
        <path id="Path_302" data-name="Path 302" d="M-8130.8-2326.4l21.9,12a27.2,27.2,0,0,1,14.9,25.3l1.2,72.7c.1,8.1-6.5,13.3-14.6,13.3h-79.2l-5.7-23.8-.1-.2-.1-.7c-.7-3.2,1.3-3.5,1.4-3.5l49.4-10.9a5.686,5.686,0,0,0,4.5-6.1l-2.5-31.8" fill="none" stroke="#000" stroke-linecap="round" stroke-linejoin="round" stroke-width="0.5"/>
        <g id="Group_42" transform="translate(0 29.959)">
          <path id="Path_120" d="M-8292.4-2402.9s-12.6-.5-20.9-5.3c-4.9-2.8-11.3-6.8-11.6-8.5-.6-3.2,7.2.1,8.5.5" fill="none" stroke="#000" stroke-linecap="round" stroke-linejoin="round" stroke-width="0.5"/>
          <path id="Path_121" d="M-8285.3-2397.1l-3.7-5.2c-7-1.1-12.1-2.9-15.4-4.8-4.3-2.4-17.7-13.4-17.9-14.8-.7-3.9,6.1-3.7,10.9,2.4" fill="none" stroke="#000" stroke-linecap="round" stroke-linejoin="round" stroke-width="0.5"/>
          <path id="Path_122" d="M-8301.4-2412s-6.8-3.5-9.7-7.1c-3-3.6-5-6.4-4.5-7,.5-.7,4.4-.6,6.4,1.4,2.5,3.7,10.5,7.6,10.5,7.6-.9-.2-6-3.7-8.5-6s-3.7-6.7,3.2-3.1c0,0,7.3,4,10,5,0,0,11.5,1.4,15.2,5.3.8.8,2.8,2.9,5.8,5.9" fill="none" stroke="#000" stroke-linecap="round" stroke-linejoin="round" stroke-width="0.5"/>
        </g>
        <path id="Path_123" d="M-8227.6-2211.5c-5.2,1.3-7.6,1-6.3-1.9,1-1.9,14.1-8.8,16.6-9.5s25-4,25-4l5.8,23.8H-8219c-7.9.5-5.6-4-2.4-5.1,3.2-1.2,9.1-3.9,10-3.7,0,0-8.5,2.4-12.2,4.8-2.7,1.1-5.7-.8-6-1.6-.3-.9,2.2-3.2,6.3-5.2a84.666,84.666,0,0,1,9.4-3.9" fill="none" stroke="#000" stroke-linecap="round" stroke-linejoin="round" stroke-width="0.5"/>
        <path id="Path_124" d="M-8122.8-2356.5l-7.1,27.3a16.34,16.34,0,0,1-19.5,12.4,16.341,16.341,0,0,1-12.4-19.5l2.2-9.7" fill="none" stroke="#000" stroke-linecap="round" stroke-linejoin="round" stroke-width="0.5"/>
        <path id="Path_125" d="M-8113.4-2373.2s13-25.4-12.5-39.1c-2.4-1.3-18.9-9.6-26.8,3.7a122.32,122.32,0,0,0-11.5,27.4c0,.1-4.8,15.4-1.6,25.9s16.9,14.1,25.3,12.2c8.5-1.9,10.4-3.6,14.1-7.9,3.5-4.2,12.9-22.1,13-22.2Z" fill="none" stroke="#000" stroke-linecap="round" stroke-linejoin="round" stroke-width="0.5"/>
        <g id="Group_43" transform="translate(166.218 29.399)">
          <path id="Path_127" d="M-8318.4-2415.2l-5.5,13.9,4.6,1.6" fill="none" stroke="#000" stroke-linecap="round" stroke-linejoin="round" stroke-width="0.5"/>
          <path id="Path_130" d="M-8299.9-2415.2a6.42,6.42,0,0,0-5-4.4" fill="none" stroke="#000" stroke-linecap="round" stroke-linejoin="round" stroke-width="0.5"/>
          <path id="Path_131" d="M-8316.9-2425.4s-4-3.7-7-1.5" fill="none" stroke="#000" stroke-linecap="round" stroke-linejoin="round" stroke-width="0.5"/>
        </g>
        <path id="Path_133" d="M-8155.5-2360.1c-3.1-6.3,11.3-2,11.3-2s-4,14.4-11.3,2" fill="none" stroke="#000" stroke-linecap="round" stroke-linejoin="round" stroke-width="0.5"/>
      </g>
      <g id="Group_225" data-name="Group 225">
        <path id="Path_126" d="M417.6,201.1a131.471,131.471,0,0,1,11.5-27.4,8.343,8.343,0,0,1,.8-1.2c-4.3-3.4-11.2,3.6-16,17.8-2.5,7.3-9.3,11.1-9.3,11.1,5.2,4.6,9.9,2.5,13,0v-.3"/>
        <path id="Path_128" d="M423.4,194.3c-.5,1.1-.3,2.3.5,2.6s1.7-.4,2.2-1.5.3-2.3-.5-2.6c-.7-.3-1.7.4-2.2,1.5"/>
        <path id="Path_129" d="M435.9,200.2a2.038,2.038,0,0,0,.9,2.5c.7.2,1.6-.7,1.9-1.9s-.1-2.3-.9-2.5-1.6.7-1.9,1.9"/>
        <path id="Path_132" d="M495.8,201.5l-13.8-7c1.7-10.3,2.5-27.6-16.9-36.4-30-13.6-43.8,17-43.8,17l70,35.2a4.954,4.954,0,0,0,6.7-2.1h0a4.934,4.934,0,0,0-2.2-6.7h0" fill="#70afde"/>
        <path id="Path_134" d="M480.4,204.9l-29.2-14.7c-3.4,10.6-7.6,31.8,10.4,37.3,0,0,14.2,4.7,18.2.1,0,0-9.7-7.1-7.5-12.9,0,0,9.9,14.7,21.6,6.9.1-.1-13.7-4.5-13.5-16.7"/>
      </g>
      <g id="Group_45" transform="translate(8424.194 2490.976)">
        <path id="Path_303" data-name="Path 303" d="M-8320.2-2428.7h102a7.81,7.81,0,0,1,7.8,7.8v27a7.81,7.81,0,0,1-7.8,7.8h-102a7.81,7.81,0,0,1-7.8-7.8v-27A7.809,7.809,0,0,1-8320.2-2428.7Z" fill="#fff" stroke="#000" stroke-width="0.5"/>
        <g id="Group_66" transform="translate(-1.867 2.833)">
          <g id="Line_8">
            <path id="Path_304" data-name="Path 304" d="M-8224.8-2413.3h-85.6a2.476,2.476,0,0,1-2.5-2.5,2.476,2.476,0,0,1,2.5-2.5h85.6a2.476,2.476,0,0,1,2.5,2.5A2.476,2.476,0,0,1-8224.8-2413.3Z" fill="#1e3c6b"/>
          </g>
          <g id="Line_9">
            <path id="Path_305" data-name="Path 305" d="M-8269.8-2401.7h-40.6a2.476,2.476,0,0,1-2.5-2.5,2.476,2.476,0,0,1,2.5-2.5h40.6a2.476,2.476,0,0,1,2.5,2.5A2.476,2.476,0,0,1-8269.8-2401.7Z" fill="#1e3c6b"/>
          </g>
        </g>
      </g>
      <g id="Group_68" transform="translate(23 -22)">
        <path id="Path_306" data-name="Path 306" d="M111,144.3H213a7.81,7.81,0,0,1,7.8,7.8v50a7.81,7.81,0,0,1-7.8,7.8H111a7.81,7.81,0,0,1-7.8-7.8v-50A7.81,7.81,0,0,1,111,144.3Z" fill="#fff" stroke="#000" stroke-width="0.5"/>
        <g id="Group_67" transform="translate(8442 2587.547)">
          <g id="Group_65" transform="translate(-0.001)">
            <path id="Path_156" d="M-8296.4-2421.5h-26.9a1.685,1.685,0,0,1-1.7-1.7h0v-2.7a1.686,1.686,0,0,1,1.7-1.7h26.9a1.685,1.685,0,0,1,1.7,1.7h0v2.7a1.752,1.752,0,0,1-1.7,1.7h0" fill="#1e3c6b"/>
            <path id="Path_157" d="M-8293.7-2393.5h-29.6a1.685,1.685,0,0,1-1.7-1.7h0v-2.7a1.686,1.686,0,0,1,1.7-1.7h29.6a1.685,1.685,0,0,1,1.7,1.7h0v2.7a1.686,1.686,0,0,1-1.7,1.7" fill="#1e3c6b"/>
            <path id="Path_160" d="M-8267.3-2412.1h-1a1.685,1.685,0,0,1-1.7-1.7h0v-2.7a1.686,1.686,0,0,1,1.7-1.7h1a1.685,1.685,0,0,1,1.7,1.7h0v2.7a1.75,1.75,0,0,1-1.7,1.7h0" fill="#a5e9ff"/>
            <path id="Path_161" d="M-8273.7-2412.1h-49.6a1.685,1.685,0,0,1-1.7-1.7h0v-2.7a1.686,1.686,0,0,1,1.7-1.7h49.6a1.685,1.685,0,0,1,1.7,1.7h0v2.7a1.827,1.827,0,0,1-1.7,1.7" fill="#1e3c6b"/>
            <path id="Path_162" d="M-8258.1-2421.5H-8285a1.685,1.685,0,0,1-1.7-1.7h0v-2.7a1.686,1.686,0,0,1,1.7-1.7h26.9a1.685,1.685,0,0,1,1.7,1.7h0v2.7a1.754,1.754,0,0,1-1.7,1.7" fill="#1e3c6b"/>
          </g>
          <g id="Group_64" transform="translate(8.358)">
            <path id="Path_155" d="M-8298.7-2421.5h-1a1.685,1.685,0,0,1-1.7-1.7h0v-2.7a1.686,1.686,0,0,1,1.7-1.7h1a1.685,1.685,0,0,1,1.7,1.7h0v2.7a1.686,1.686,0,0,1-1.7,1.7h0" fill="#a5e9ff"/>
            <path id="Path_158" d="M-8275.5-2402.8h-47.8a1.685,1.685,0,0,1-1.7-1.7h0v-2.7a1.686,1.686,0,0,1,1.7-1.7h47.8a1.685,1.685,0,0,1,1.7,1.7h0v2.7a1.752,1.752,0,0,1-1.7,1.7" fill="#a5e9ff"/>
            <path id="Path_159" d="M-8245-2402.8h-24.3a1.685,1.685,0,0,1-1.7-1.7h0v-2.7a1.686,1.686,0,0,1,1.7-1.7h24.3a1.685,1.685,0,0,1,1.7,1.7h0v2.7a1.752,1.752,0,0,1-1.7,1.7" fill="#a5e9ff"/>
          </g>
        </g>
      </g>
    </g>
  </g>
</svg>
