<svg xmlns="http://www.w3.org/2000/svg" width="70" height="70" viewBox="0 0 70 70">
  <g id="Business_Oriented" data-name="Business Oriented" transform="translate(-407 -4227.834)">
    <path id="Stroke-1" d="M23.554,30.193c-10.024,0-18.587-1.516-18.587-7.588s8.508-11.358,18.587-11.358c10.024,0,18.587,5.236,18.587,11.305S33.634,30.193,23.554,30.193Z" transform="translate(418.247 4258.563)" fill="none" stroke="#a5e9ff" stroke-linecap="round" stroke-linejoin="round" stroke-width="5" fill-rule="evenodd"/>
    <path id="Stroke-3" d="M19.038,24.577a11.873,11.873,0,1,0-.084,0Z" transform="translate(422.764 4236.575)" fill="none" stroke="#a5e9ff" stroke-linecap="round" stroke-linejoin="round" stroke-width="5" fill-rule="evenodd"/>
    <path id="Stroke-5" d="M17.71,19.213A8.978,8.978,0,0,0,17.2,1.749" transform="translate(443.866 4238.668)" fill="none" stroke="#1e3c6b" stroke-linecap="round" stroke-linejoin="round" stroke-width="5" fill-rule="evenodd"/>
    <path id="Stroke-7" d="M17.943,10.544c5.428,0,10.064,3.68,10.064,6.966a5.077,5.077,0,0,1-4.026,4.611" transform="translate(445.431 4257.094)" fill="none" stroke="#1e3c6b" stroke-linecap="round" stroke-linejoin="round" stroke-width="5" fill-rule="evenodd"/>
    <path id="Stroke-9" d="M9.088,19.213A8.977,8.977,0,0,1,9.6,1.749" transform="translate(412.942 4238.668)" fill="none" stroke="#1e3c6b" stroke-linecap="round" stroke-linejoin="round" stroke-width="5" fill-rule="evenodd"/>
    <path id="Stroke-11" d="M10.814,10.544C5.386,10.544.75,14.224.75,17.511a5.077,5.077,0,0,0,4.029,4.611" transform="translate(409.414 4257.094)" fill="none" stroke="#1e3c6b" stroke-linecap="round" stroke-linejoin="round" stroke-width="5" fill-rule="evenodd"/>
    <rect id="Rectangle_44" data-name="Rectangle 44" width="70" height="70" transform="translate(407 4227.834)" fill="none"/>
  </g>
</svg>
