<svg xmlns="http://www.w3.org/2000/svg" width="70" height="70" viewBox="0 0 70 70">
  <g id="Cutting-edge_tech" data-name="Cutting-edge tech" transform="translate(-407 -4752.834)">
    <rect id="Rectangle_44" data-name="Rectangle 44" width="70" height="70" transform="translate(407 4752.834)" fill="none"/>
    <path id="Path_208" data-name="Path 208" d="M179.4,182.517a4.422,4.422,0,0,0-3.449-1.768.408.408,0,0,0-.12-.012,4.445,4.445,0,1,0,0,8.889l0,0H189.05l.006,0a6.338,6.338,0,0,0,1-12.6,7.374,7.374,0,1,0-14.1,3.719" transform="translate(259.109 4607.9)" fill="none" stroke="#a5e9ff" stroke-linecap="round" stroke-miterlimit="10" stroke-width="5"/>
    <g id="Group_84" data-name="Group 84" transform="translate(-853.354 46.834)">
      <circle id="Ellipse_26" data-name="Ellipse 26" cx="5" cy="5" r="5" transform="translate(1290 4709)" fill="#1e3c6b"/>
      <circle id="Ellipse_27" data-name="Ellipse 27" cx="5" cy="5" r="5" transform="translate(1290 4764)" fill="#1e3c6b"/>
      <circle id="Ellipse_26-2" data-name="Ellipse 26" cx="5" cy="5" r="5" transform="translate(1320.646 4720.92) rotate(60)" fill="#1e3c6b"/>
      <circle id="Ellipse_27-2" data-name="Ellipse 27" cx="5" cy="5" r="5" transform="translate(1273.014 4748.42) rotate(60)" fill="#1e3c6b"/>
      <circle id="Ellipse_26-3" data-name="Ellipse 26" cx="5" cy="5" r="5" transform="translate(1278.014 4725.92) rotate(120)" fill="#1e3c6b"/>
      <circle id="Ellipse_27-3" data-name="Ellipse 27" cx="5" cy="5" r="5" transform="translate(1325.646 4753.42) rotate(120)" fill="#1e3c6b"/>
      <g id="Polygon_2" data-name="Polygon 2" transform="translate(1321.729 4711) rotate(90)" fill="none">
        <path d="M45.75,0,61,26.688,45.75,53.375H15.25L0,26.687,15.25,0Z" stroke="none"/>
        <path d="M 18.151611328125 5 L 5.758754730224609 26.6875 L 18.151611328125 48.375 L 42.848388671875 48.375 L 55.24124526977539 26.6875 L 42.848388671875 5 L 18.151611328125 5 M 15.25 0 L 45.75 0 L 61 26.6875 L 45.75 53.375 L 15.25 53.375 L 0 26.6875 L 15.25 0 Z" stroke="none" fill="#1e3c6b"/>
      </g>
    </g>
  </g>
</svg>
