<svg xmlns="http://www.w3.org/2000/svg" width="70" height="70" viewBox="0 0 70 70">
  <g id="International_Scope" data-name="International Scope" transform="translate(-972 -4227.834)">
    <rect id="Rectangle_44" data-name="Rectangle 44" width="70" height="70" transform="translate(972 4227.834)" fill="none"/>
    <g id="Group_82" data-name="Group 82" transform="translate(980 4244.055)">
      <g id="Ellipse_23" data-name="Ellipse 23" fill="#fff" stroke="#1e3c6b" stroke-linecap="round" stroke-linejoin="round" stroke-width="5">
        <circle cx="25.39" cy="25.39" r="25.39" stroke="none"/>
        <circle cx="25.39" cy="25.39" r="22.89" fill="none"/>
      </g>
      <path id="Path_204" data-name="Path 204" d="M5.337,0a7.681,7.681,0,0,1-3.57,6.1C-1.8,8.329.267,15.468,5.9,16.5S25,18.2,25.934,23.79" transform="matrix(0.848, 0.53, -0.53, 0.848, 32.83, 5.964)" fill="none" stroke="#1e3c6b" stroke-linecap="round" stroke-linejoin="round" stroke-width="5"/>
      <path id="Path_205" data-name="Path 205" d="M14.794,5.579S8.816.123,6.328,0,4.282,4.456.832,7.1s4.854,3.932,6.3,5.456,1.685,1.765,1.685,1.765" transform="translate(23.894 29.802) rotate(82)" fill="none" stroke="#1e3c6b" stroke-linecap="round" stroke-linejoin="round" stroke-width="5"/>
    </g>
    <g id="Group_81" data-name="Group 81" transform="translate(980 4231.834)">
      <g id="Path_207" data-name="Path 207" fill="#fff">
        <path d="M 15.54262733459473 45.53203201293945 C 14.09048175811768 43.83089828491211 11.95550441741943 41.14311218261719 9.841461181640625 37.8039436340332 C 7.688981056213379 34.4040641784668 5.978271007537842 31.00251197814941 4.756861209869385 27.69376182556152 C 3.259320974349976 23.63698196411133 2.500001192092896 19.71542167663574 2.500001192092896 16.03802299499512 C 2.500001192092896 12.4218921661377 3.908200979232788 9.022192001342773 6.465200901031494 6.465202331542969 C 9.022191047668457 3.908202409744263 12.42189121246338 2.500002384185791 16.03802108764648 2.500002384185791 C 19.65416145324707 2.500002384185791 23.0538501739502 3.908202409744263 25.6108512878418 6.465202331542969 C 28.1678409576416 9.022192001342773 29.57604026794434 12.42188262939453 29.57604026794434 16.03802299499512 C 29.57604026794434 19.24170303344727 28.76972198486328 22.87030220031738 27.17947196960449 26.82303237915039 C 25.87063026428223 30.0762825012207 24.03671073913574 33.53825378417969 21.72866058349609 37.11274337768555 C 19.4084415435791 40.70608139038086 17.08054161071777 43.67823791503906 15.54262733459473 45.53203201293945 Z" stroke="none"/>
        <path d="M 16.03802108764648 5.000003814697266 C 13.08965492248535 5.000003814697266 10.3177661895752 6.148159027099609 8.232965469360352 8.232967376708984 C 6.148155212402344 10.31776809692383 4.999998092651367 13.08965682983398 4.999998092651367 16.03802490234375 C 4.999998092651367 19.40190315246582 5.700210571289062 23.01299095153809 7.081165313720703 26.77098083496094 C 8.231986999511719 29.90270233154297 9.85169792175293 33.13368988037109 11.89529800415039 36.37419128417969 C 13.14959335327148 38.36309814453125 14.41361808776855 40.11435317993164 15.52693557739258 41.55067443847656 C 16.7617015838623 39.94918441772461 18.19448280334473 37.97739410400391 19.62843322753906 35.75662231445312 C 24.50069808959961 28.21091270446777 27.07604217529297 21.39233589172363 27.07604217529297 16.03802490234375 C 27.07604217529297 13.08965682983398 25.92788696289062 10.31776809692383 23.84307670593262 8.232967376708984 C 21.75827789306641 6.148159027099609 18.98638916015625 5.000003814697266 16.03802108764648 5.000003814697266 M 16.03802108764648 3.814697265625e-06 C 24.89557647705078 3.814697265625e-06 32.07604217529297 7.180469512939453 32.07604217529297 16.03802490234375 C 32.07604217529297 31.49147987365723 15.58173179626465 49.30960083007812 15.58173179626465 49.30960083007812 C 15.58173179626465 49.30960083007812 0 33.54372406005859 0 16.03802490234375 C 0 7.180469512939453 7.180465698242188 3.814697265625e-06 16.03802108764648 3.814697265625e-06 Z" stroke="none" fill="#a5e9ff"/>
      </g>
      <g id="Ellipse_25" data-name="Ellipse 25" transform="translate(8.463 9.047)" fill="#fff" stroke="#a5e9ff" stroke-width="5">
        <circle cx="7.405" cy="7.405" r="7.405" stroke="none"/>
        <circle cx="7.405" cy="7.405" r="4.905" fill="none"/>
      </g>
    </g>
  </g>
</svg>
