<svg xmlns="http://www.w3.org/2000/svg" width="70" height="70" viewBox="0 0 70 70">
  <g id="Partnership" transform="translate(-407 -5277.834)">
    <rect id="Rectangle_44" data-name="Rectangle 44" width="70" height="70" transform="translate(407 5277.834)" fill="none"/>
    <path id="_377323592" d="M58.715,24.789a4.226,4.226,0,0,1-.592.167,4.183,4.183,0,0,1,.266.641A4.12,4.12,0,0,1,55.932,30.7a4.234,4.234,0,0,1-1.327.278,4.165,4.165,0,0,1-.2,3.028v.005a4.2,4.2,0,0,1-3.89,2.4,4.172,4.172,0,0,1-.272,2.748h-.005a4.188,4.188,0,0,1-5.565,2.018h-.005C42.6,40.2,19.178,31.516,15.8,31.809a24.129,24.129,0,0,0-6.254,1.468l-1.05.07-.359-.991L1.49,12.7.82,10.851l1.97-.025,6.69-.084h.066a4.971,4.971,0,0,0,4-1.448c.14-.2,3.6-5.121,7.592-6.569a8.9,8.9,0,0,1,7.168.241c5.485,2.668,22.836,10.4,30.621,14.046l.145.049a4.2,4.2,0,0,1,2.013,5.567v.005a4.184,4.184,0,0,1-2.368,2.154Z" transform="translate(410.181 5293.369)" fill="none" stroke="#a5e9ff" stroke-linecap="round" stroke-linejoin="round" stroke-width="5"/>
    <path id="_377323568" d="M18.794,7.033a4.593,4.593,0,0,1,.283.6,4.683,4.683,0,0,1,.592-.12,4.285,4.285,0,0,1,2.465.384l.005.005.018.009h.005a4.456,4.456,0,0,1,2.294,2.78,5.08,5.08,0,0,1-.329,3.644h-.005l-.012.024v.005c-.041.082-.075.148-.1.2a7.009,7.009,0,0,1-2.777,2.682,4.325,4.325,0,0,1-3.963.265h-.005c-.023-.012-11.988-5.755-15.18-7.516l-.005-.005A4.1,4.1,0,0,1,.065,6.873a7.107,7.107,0,0,1,.663-4.03V2.838A5.149,5.149,0,0,1,3.441.328,4.5,4.5,0,0,1,7.069.439,4.162,4.162,0,0,1,8.793,2a4.629,4.629,0,0,1,.3.572,4.645,4.645,0,0,1,.629-.108,4.228,4.228,0,0,1,2.269.392H12A4.179,4.179,0,0,1,13.73,4.418a4.541,4.541,0,0,1,.3.572,4.679,4.679,0,0,1,.628-.107,4.208,4.208,0,0,1,2.269.393,4.269,4.269,0,0,1,1.866,1.758Z" transform="translate(429.288 5322.771) rotate(-5)" fill="#fff" stroke="#1e3c6b" stroke-linecap="round" stroke-linejoin="round" stroke-width="5"/>
    <path id="_377324240" d="M39.513,2.947l5.906,16.3L45.8,20.3l-.964.579c-.009.006-3.25,1.958-4,2.344l-.275.163a6.018,6.018,0,0,1-5.766.785l-.016-.005L19.257,17.03h0a.785.785,0,0,0-.118-.039,1.918,1.918,0,0,0-.48-.055,2.63,2.63,0,0,0-1.949,1.007c-.852.937-2.113,2.313-3.507,3.818-.938,1.014-1.752,1.884-2.217,2.364h0a5.136,5.136,0,0,1-2.068,1.425,4.646,4.646,0,0,1-2.7.138,5.06,5.06,0,0,1-2.172-1.143A4.169,4.169,0,0,1,2.907,22.9a4.249,4.249,0,0,1-.073-2.757,6.141,6.141,0,0,1,1.258-2.182c1.174-1.457,2.974-3.6,4.793-5.719,2.047-2.391,4.159-4.808,5.418-6.2l0,0a5.33,5.33,0,0,1,2.926-1.882,7.6,7.6,0,0,1,4.211.586c3.826,1.4,7.161,2.672,7.171,2.676h0a1.489,1.489,0,0,0,1.126-.252v0c3.26-2.026,7.754-4.893,7.767-4.9l1.434-.915.579,1.6Z" transform="translate(428.2 5283.486)" fill="#fff" stroke="#1e3c6b" stroke-linecap="round" stroke-linejoin="round" stroke-width="5"/>
  </g>
</svg>
