<svg xmlns="http://www.w3.org/2000/svg" xmlns:xlink="http://www.w3.org/1999/xlink" width="373.832" height="61.254" viewBox="0 0 373.832 61.254">
  <defs>
    <linearGradient id="linear-gradient" x1="0.5" x2="0.5" y2="1" gradientUnits="objectBoundingBox">
      <stop offset="0" stop-color="#1e3c6b" stop-opacity="0.039"/>
      <stop offset="1" stop-color="#1e3c6b" stop-opacity="0"/>
    </linearGradient>
  </defs>
  <path id="About_Us" data-name="About Us" d="M-187.082,0l23.24-58.6h11.786L-129.065,0h-13.778l-17.6-48.638h4.731L-173.553,0Zm13.2-10.624V-21.248h31.955v10.624ZM-95.948.83a16.467,16.467,0,0,1-7.47-1.7,15.539,15.539,0,0,1-5.561-4.565,12.4,12.4,0,0,1-2.49-6.432V-28.884a11.948,11.948,0,0,1,2.49-6.35,14.76,14.76,0,0,1,5.561-4.358,17.549,17.549,0,0,1,7.47-1.577,18.969,18.969,0,0,1,10.168,2.739,19.294,19.294,0,0,1,6.972,7.47,22.512,22.512,0,0,1,2.532,10.79,22.512,22.512,0,0,1-2.532,10.79,19.294,19.294,0,0,1-6.972,7.47A18.969,18.969,0,0,1-95.948.83Zm-2.241-11.454A8.8,8.8,0,0,0-93.5-11.869a8.8,8.8,0,0,0,3.2-3.4,10.164,10.164,0,0,0,1.162-4.9,10.342,10.342,0,0,0-1.162-4.98,8.5,8.5,0,0,0-3.2-3.362,9.032,9.032,0,0,0-4.689-1.2,9.256,9.256,0,0,0-4.731,1.2,8.139,8.139,0,0,0-3.2,3.362,10.654,10.654,0,0,0-1.12,4.98,10.342,10.342,0,0,0,1.162,4.98,8.5,8.5,0,0,0,3.2,3.361A9.032,9.032,0,0,0-98.189-10.624ZM-119.188,0V-60.258h12.7v29.8l-2.075,9.794,1.909,9.794V0Zm72.957.913A22.822,22.822,0,0,1-57.478-1.868,20.912,20.912,0,0,1-65.4-9.462a20.476,20.476,0,0,1-2.905-10.79A20.047,20.047,0,0,1-65.4-30.959a21.208,21.208,0,0,1,7.885-7.511,22.757,22.757,0,0,1,11.288-2.78,23.031,23.031,0,0,1,11.288,2.739A20.785,20.785,0,0,1-27.058-31a20.261,20.261,0,0,1,2.9,10.749,20.476,20.476,0,0,1-2.9,10.79,21,21,0,0,1-7.885,7.595A22.757,22.757,0,0,1-46.231.913Zm0-11.537a9.421,9.421,0,0,0,4.814-1.2,8.081,8.081,0,0,0,3.2-3.4A10.908,10.908,0,0,0-37.1-20.252a10.1,10.1,0,0,0-1.162-4.939,8.577,8.577,0,0,0-3.2-3.32,9.2,9.2,0,0,0-4.773-1.2,9.256,9.256,0,0,0-4.731,1.2A8.416,8.416,0,0,0-54.2-25.149a10.342,10.342,0,0,0-1.162,4.98A10.408,10.408,0,0,0-54.2-15.231a8.35,8.35,0,0,0,3.237,3.4A9.256,9.256,0,0,0-46.231-10.624ZM4.233.913A20.562,20.562,0,0,1-5.6-1.37a16.877,16.877,0,0,1-6.682-6.308,17.683,17.683,0,0,1-2.407-9.255V-40.338h12.7V-17.1a8.3,8.3,0,0,0,.705,3.569A5.221,5.221,0,0,0,.83-11.205a6.6,6.6,0,0,0,3.4.83A5.825,5.825,0,0,0,8.715-12.16a6.97,6.97,0,0,0,1.66-4.939v-23.24h12.7v23.323a17.844,17.844,0,0,1-2.407,9.338,16.949,16.949,0,0,1-6.64,6.308A20.318,20.318,0,0,1,4.233.913ZM40.919,0V-57.021h12.7V0Zm-9.13-29.548v-10.79H62.748v10.79ZM117.113.913a25.767,25.767,0,0,1-12.741-3.071,22.187,22.187,0,0,1-8.632-8.507,24.525,24.525,0,0,1-3.112-12.409V-58.6h13.114v36.271a11.854,11.854,0,0,0,1.494,6.059,10.065,10.065,0,0,0,4.108,3.943,12.241,12.241,0,0,0,5.769,1.37,11.866,11.866,0,0,0,5.81-1.37,10.08,10.08,0,0,0,3.943-3.9,11.891,11.891,0,0,0,1.452-6.017V-58.6h13.114v35.607a24.556,24.556,0,0,1-3.071,12.367,22.056,22.056,0,0,1-8.549,8.466A25.532,25.532,0,0,1,117.113.913ZM169.486,1a27.259,27.259,0,0,1-7.014-.913,26.071,26.071,0,0,1-6.391-2.615,21.278,21.278,0,0,1-5.021-3.942l7.221-7.3a14.06,14.06,0,0,0,4.731,3.361,14.691,14.691,0,0,0,5.976,1.2,7.244,7.244,0,0,0,3.445-.664,2.025,2.025,0,0,0,1.2-1.826,2.48,2.48,0,0,0-1.452-2.283A17.833,17.833,0,0,0,168.49-15.4q-2.241-.622-4.731-1.37a21.19,21.19,0,0,1-4.731-2.075,10.385,10.385,0,0,1-3.652-3.694,11.6,11.6,0,0,1-1.411-6.017,11.547,11.547,0,0,1,1.992-6.765A13.459,13.459,0,0,1,161.6-39.84a20.492,20.492,0,0,1,8.549-1.66,24.838,24.838,0,0,1,9.5,1.785,17.048,17.048,0,0,1,7.1,5.27l-7.221,7.3a10.684,10.684,0,0,0-4.275-3.154,12.751,12.751,0,0,0-4.606-.913,6.636,6.636,0,0,0-3.237.622,1.958,1.958,0,0,0-1.079,1.785,2.238,2.238,0,0,0,1.411,1.992,17.08,17.08,0,0,0,3.652,1.328q2.241.581,4.731,1.411a21.772,21.772,0,0,1,4.731,2.241,11.107,11.107,0,0,1,3.652,3.776,11.966,11.966,0,0,1,1.411,6.184A11.3,11.3,0,0,1,181.48-2.49Q177.039,1,169.486,1Z" transform="translate(187.082 60.258)" fill="url(#linear-gradient)"/>
</svg>
