<svg xmlns="http://www.w3.org/2000/svg" width="540.25" height="400" viewBox="0 0 540.25 400">
  <g id="Developing_Customized_Software_and_Systems" data-name="Developing Customized Software and Systems" transform="translate(-9755.75 -2364.583)">
    <rect id="Rectangle_31" data-name="Rectangle 31" width="540" height="400" transform="translate(9756 2364.583)" fill="none"/>
    <g id="Group_57" transform="translate(19293.404 6233.366)">
      <g id="Group_223" data-name="Group 223">
        <g id="Group_46" transform="translate(218.596 -1328.322)">
          <path id="Path_137" d="M-9710.2-2192.8l-14.4-118.5c-3.7-29.7,17.4-53.7,47.3-53.7h49.9" fill="none" stroke="#000" stroke-linecap="round" stroke-linejoin="round" stroke-width="0.5"/>
          <line id="Line_10" x2="479.1" transform="translate(-9756 -2192.7)" fill="none" stroke="#000" stroke-linecap="round" stroke-linejoin="round" stroke-width="0.5"/>
        </g>
        <path id="Path_138" d="M-9450.8-3521.9c-12.4-.1-15.7-11.7-19.9-23.4-14.6-40.9,10.5-127.5,66.6-138.5-7.6-15.2-4.1-28.9,29.8-33.9.5.9.9,1.7,1.4,2.6l.9,10.3a13.2,13.2,0,0,1-8.9,13.6l-4.2,1.9a9.5,9.5,0,0,0-4.7,12.5c.3.6.6,1.1.9,1.6a70.536,70.536,0,0,0,26.3,22.5" fill="none" stroke="#000" stroke-linecap="round" stroke-linejoin="round" stroke-width="0.5"/>
        <path id="Path_139" d="M-9171.3-3522.5c-2.1-13.9-17.2-89.1-103.7-154.8-1.9-11.7-6.8-29.9-32-38.5" fill="none" stroke="#000" stroke-linecap="round" stroke-linejoin="round" stroke-width="0.5"/>
        <path id="Path_140" d="M-9281.4-3640.1s-.9,25.3,4.6,43.5" fill="none" stroke="#000" stroke-linecap="round" stroke-linejoin="round" stroke-width="0.5"/>
        <path id="Path_141" d="M-9276.1-3677.2" fill="none" stroke="#000" stroke-linecap="round" stroke-linejoin="round" stroke-width="0.5"/>
        <path id="Path_142" d="M-9274.9-3677.2c2.4,15.4-3.2,30.2-6.5,37.3" fill="none" stroke="#000" stroke-linecap="round" stroke-linejoin="round" stroke-width="0.5"/>
        <path id="Path_143" d="M-9367.7-3645.7c-19.2-11.4-30.4-26.1-36.4-38" fill="none" stroke="#000" stroke-linecap="round" stroke-linejoin="round" stroke-width="0.5"/>
        <path id="Path_144" d="M-9404.1-3683.7" fill="none" stroke="#000" stroke-linecap="round" stroke-linejoin="round" stroke-width="0.5"/>
        <path id="Path_145" d="M-9384-3746.9s-18.7,2.8-11.3,17.4c4.2,8.4,11.7,5.5,16.3,2.9" fill="none" stroke="#000" stroke-linecap="round" stroke-linejoin="round" stroke-width="0.5"/>
        <path id="Path_289" data-name="Path 289" d="M-9326-3693.6c10.9-4.1,17.6-13.4,19.3-24.1a90.355,90.355,0,0,0-1-24.9h-.1c-1.6-12.4-4.7-28.2-10.3-42.4-8.3-21.1-34-12.9-37.7-11.6-40.1,13.6-27.2,53.3-27.2,53.3v.1l-3.7,1.2s13.2,26.8,17.4,33.9,6.7,10,18.4,14.6a36.269,36.269,0,0,0,13,2.2c1,0,2.1-.1,3.1-.2" fill="none" stroke="#000" stroke-linecap="round" stroke-linejoin="round" stroke-width="0.5"/>
        <g id="Group_47" transform="translate(405.022 -1405.192)">
          <path id="Path_148" d="M-9731.2-2344.1l7.3,19.3h-7.5" fill="none" stroke="#000" stroke-linecap="round" stroke-linejoin="round" stroke-width="0.5"/>
          <path id="Path_149" d="M-9731.6-2311.7a3.691,3.691,0,0,1-3.7,3.7h0a3.692,3.692,0,0,1-3.7-3.7h0a3.671,3.671,0,0,1,3.6-3.7h.1a3.692,3.692,0,0,1,3.7,3.7" fill="none" stroke="#000" stroke-linecap="round" stroke-linejoin="round" stroke-width="0.5"/>
          <path id="Path_152" d="M-9756-2353.4a9.655,9.655,0,0,1,8-5.7" fill="none" stroke="#000" stroke-linecap="round" stroke-linejoin="round" stroke-width="0.5"/>
          <path id="Path_153" d="M-9729.4-2364.1s5.3-2.9,7.9,1.4" fill="none" stroke="#000" stroke-linecap="round" stroke-linejoin="round" stroke-width="0.5"/>
        </g>
      </g>
      <g id="Group_224" data-name="Group 224">
        <path id="Path_147" d="M-9384.9-3738.6a109.632,109.632,0,0,1-12.7-18.9,23.271,23.271,0,0,1,5.4-28.6c7-5.8,13.6-4.3,13.6-4.3s-12-12.2-2.6-28.1a23.9,23.9,0,0,1,15.3-11,22.981,22.981,0,0,1,23.6,8.4s8.9-34.6,47.4-25c3.9,1,9,5.1,11.7,8,16.4,17.9-14.4,51.6-33.2,58.3-20.6,7.4-33.8,7-41.9,3.5,5.8,1.9,6,34.7-26.6,37.7" stroke="#000" stroke-linecap="round" stroke-linejoin="round" stroke-width="0.5"/>
        <path id="Path_150" d="M-9316.4-3751.4c.4,1.7-.1,3.4-1.2,3.7s-2.4-.9-2.8-2.6.1-3.4,1.2-3.6c1.1-.4,2.4.8,2.8,2.5"/>
        <path id="Path_151" d="M-9336.1-3746.8c.4,1.7-.1,3.4-1.2,3.7s-2.4-.9-2.8-2.6.1-3.4,1.2-3.7,2.4.9,2.8,2.6"/>
        <path id="Path_154" d="M-9094.9-3628.6h-150.6a4.183,4.183,0,0,0-4.1,3.3l-21,88.6h-54.6s-3,15.6,14.6,15.6h192.3a4.183,4.183,0,0,0,4.1-3.3l23.4-99a4.255,4.255,0,0,0-3.2-5.1,2.765,2.765,0,0,0-.9-.1" fill="#a5e9ff"/>
      </g>
      <g id="Group_48" transform="translate(544.589 -1422.828)">
        <g id="Group_65" transform="translate(-0.001)">
          <path id="Path_156" d="M-9727.4-2359h-26.9a1.685,1.685,0,0,1-1.7-1.7h0v-2.7a1.686,1.686,0,0,1,1.7-1.7h26.9a1.685,1.685,0,0,1,1.7,1.7h0v2.7a1.685,1.685,0,0,1-1.7,1.7h0" fill="#1e3c6b"/>
          <path id="Path_157" d="M-9724.7-2331h-29.6a1.685,1.685,0,0,1-1.7-1.7h0v-2.7a1.686,1.686,0,0,1,1.7-1.7h29.6a1.685,1.685,0,0,1,1.7,1.7h0v2.7a1.628,1.628,0,0,1-1.7,1.7" fill="#1e3c6b"/>
          <path id="Path_160" d="M-9658.3-2349.6h-1a1.685,1.685,0,0,1-1.7-1.7h0v-2.7a1.686,1.686,0,0,1,1.7-1.7h1a1.685,1.685,0,0,1,1.7,1.7h0v2.7a1.686,1.686,0,0,1-1.7,1.7h0" fill="#1e3c6b"/>
          <path id="Path_161" d="M-9704.7-2349.6h-49.6a1.685,1.685,0,0,1-1.7-1.7h0v-2.7a1.686,1.686,0,0,1,1.7-1.7h49.6a1.685,1.685,0,0,1,1.7,1.7h0v2.7a1.827,1.827,0,0,1-1.7,1.7" fill="#1e3c6b"/>
          <path id="Path_162" d="M-9689.1-2359H-9716a1.685,1.685,0,0,1-1.7-1.7h0v-2.7a1.686,1.686,0,0,1,1.7-1.7h26.9a1.685,1.685,0,0,1,1.7,1.7h0v2.7a1.687,1.687,0,0,1-1.7,1.7" fill="#1e3c6b"/>
          <path id="Path_164" d="M-9727.4-2298.5h-26.9a1.685,1.685,0,0,1-1.7-1.7h0v-2.7a1.686,1.686,0,0,1,1.7-1.7h26.9a1.685,1.685,0,0,1,1.7,1.7h0v2.7a1.752,1.752,0,0,1-1.7,1.7h0" fill="#1e3c6b"/>
          <path id="Path_165" d="M-9724.7-2270.5h-29.6a1.685,1.685,0,0,1-1.7-1.7h0v-2.7a1.686,1.686,0,0,1,1.7-1.7h29.6a1.685,1.685,0,0,1,1.7,1.7h0v2.7a1.628,1.628,0,0,1-1.7,1.7" fill="#1e3c6b"/>
          <path id="Path_168" d="M-9658.3-2289.1h-1a1.685,1.685,0,0,1-1.7-1.7h0v-2.7a1.686,1.686,0,0,1,1.7-1.7h1a1.685,1.685,0,0,1,1.7,1.7h0v2.7a1.686,1.686,0,0,1-1.7,1.7h0" fill="#1e3c6b"/>
          <path id="Path_169" d="M-9650.6-2298.5h-1a1.685,1.685,0,0,1-1.7-1.7h0v-2.7a1.686,1.686,0,0,1,1.7-1.7h1a1.685,1.685,0,0,1,1.7,1.7h0v2.7a1.686,1.686,0,0,1-1.7,1.7h0" fill="#1e3c6b"/>
          <path id="Path_170" d="M-9704.7-2289.2h-49.6a1.685,1.685,0,0,1-1.7-1.7h0v-2.7a1.686,1.686,0,0,1,1.7-1.7h49.6a1.685,1.685,0,0,1,1.7,1.7h0v2.7a1.685,1.685,0,0,1-1.7,1.7h0" fill="#1e3c6b"/>
          <path id="Path_174" d="M-9727.4-2307.5h-26.9a1.685,1.685,0,0,1-1.7-1.7h0v-2.7a1.686,1.686,0,0,1,1.7-1.7h26.9a1.685,1.685,0,0,1,1.7,1.7h0v2.7a1.752,1.752,0,0,1-1.7,1.7h0" fill="#1e3c6b"/>
          <path id="Path_175" d="M-9689.1-2307.5H-9716a1.685,1.685,0,0,1-1.7-1.7h0v-2.7a1.686,1.686,0,0,1,1.7-1.7h26.9a1.685,1.685,0,0,1,1.7,1.7h0v2.7a1.754,1.754,0,0,1-1.7,1.7" fill="#1e3c6b"/>
        </g>
        <g id="Group_64" transform="translate(8.358)">
          <path id="Path_155" d="M-9729.7-2359h-1a1.685,1.685,0,0,1-1.7-1.7h0v-2.7a1.686,1.686,0,0,1,1.7-1.7h1a1.685,1.685,0,0,1,1.7,1.7h0v2.7a1.628,1.628,0,0,1-1.7,1.7h0" fill="#a5e9ff"/>
          <path id="Path_158" d="M-9706.5-2340.3h-47.8a1.685,1.685,0,0,1-1.7-1.7h0v-2.7a1.686,1.686,0,0,1,1.7-1.7h47.8a1.685,1.685,0,0,1,1.7,1.7h0v2.7a1.685,1.685,0,0,1-1.7,1.7" fill="#a5e9ff"/>
          <path id="Path_159" d="M-9676-2340.3h-24.3a1.685,1.685,0,0,1-1.7-1.7h0v-2.7a1.686,1.686,0,0,1,1.7-1.7h24.3a1.685,1.685,0,0,1,1.7,1.7h0v2.7a1.685,1.685,0,0,1-1.7,1.7" fill="#a5e9ff"/>
          <path id="Path_163" d="M-9673.4-2349.6h-34a1.685,1.685,0,0,1-1.7-1.7h0v-2.7a1.686,1.686,0,0,1,1.7-1.7h34a1.685,1.685,0,0,1,1.7,1.7h0v2.7a1.686,1.686,0,0,1-1.7,1.7h0" fill="#a5e9ff"/>
          <path id="Path_166" d="M-9706.5-2279.8h-47.8a1.685,1.685,0,0,1-1.7-1.7h0v-2.7a1.686,1.686,0,0,1,1.7-1.7h47.8a1.685,1.685,0,0,1,1.7,1.7h0v2.7a1.752,1.752,0,0,1-1.7,1.7" fill="#a5e9ff"/>
          <path id="Path_167" d="M-9676-2279.8h-24.3a1.685,1.685,0,0,1-1.7-1.7h0v-2.7a1.686,1.686,0,0,1,1.7-1.7h24.3a1.685,1.685,0,0,1,1.7,1.7h0v2.7a1.752,1.752,0,0,1-1.7,1.7" fill="#a5e9ff"/>
          <path id="Path_171" d="M-9697.5-2298.5h-33.2a1.685,1.685,0,0,1-1.7-1.7h0v-2.7a1.686,1.686,0,0,1,1.7-1.7h33.2a1.685,1.685,0,0,1,1.7,1.7h0v2.7a1.686,1.686,0,0,1-1.7,1.7" fill="#a5e9ff"/>
          <path id="Path_172" d="M-9664.9-2298.5h-26.9a1.685,1.685,0,0,1-1.7-1.7h0v-2.7a1.686,1.686,0,0,1,1.7-1.7h26.9a1.685,1.685,0,0,1,1.7,1.7h0v2.7a1.686,1.686,0,0,1-1.7,1.7h0" fill="#a5e9ff"/>
          <path id="Path_173" d="M-9729.7-2307.5h-1a1.685,1.685,0,0,1-1.7-1.7h0v-2.7a1.686,1.686,0,0,1,1.7-1.7h1a1.685,1.685,0,0,1,1.7,1.7h0v2.7a1.686,1.686,0,0,1-1.7,1.7h0" fill="#a5e9ff"/>
          <path id="Path_176" d="M-9673.4-2289.1h-34a1.685,1.685,0,0,1-1.7-1.7h0v-2.7a1.686,1.686,0,0,1,1.7-1.7h34a1.685,1.685,0,0,1,1.7,1.7h0v2.7a1.686,1.686,0,0,1-1.7,1.7h0" fill="#a5e9ff"/>
        </g>
      </g>
      <g id="Group_50" transform="translate(336.533 -1194.329)">
        <path id="Path_177" d="M-9714.9-2346.9a7.51,7.51,0,0,1,2.6-.5,10.065,10.065,0,0,1,10.8,9.2v.1a10.066,10.066,0,0,1-9.2,10.8h-.1a8.675,8.675,0,0,1-2.3-.1" fill="none" stroke="#70afde" stroke-linecap="round" stroke-linejoin="round" stroke-width="3"/>
        <path id="Path_178" d="M-9748.3-2345.6l-10-12.2-2.8-3.4a2.369,2.369,0,0,1,.3-3.3c.1-.1.1-.1.2-.1h0a2.322,2.322,0,0,1,3.1.4l15,17.5"/>
        <path id="Path_179" d="M-9756-2351v33.2a11.609,11.609,0,0,0,11.6,11.6h19.6a11.608,11.608,0,0,0,11.6-11.6h0V-2351Z" fill="#70afde"/>
        <g id="Group_49" transform="translate(6.624 27.857)">
          <path id="Path_180" d="M-9747.1-2352.4a.842.842,0,0,1,.4.7.761.761,0,0,1-.2.5.762.762,0,0,1-.5.2.6.6,0,0,1-.4-.1l-7.7-4.6a.67.67,0,0,1-.4-.7.841.841,0,0,1,.4-.7l7.7-4.6c.1-.1.2-.1.4-.1a.763.763,0,0,1,.5.2.766.766,0,0,1,.2.5.754.754,0,0,1-.4.7l-6.7,4Z" fill="#fff"/>
          <path id="Path_181" d="M-9737.4-2363.9l-6.2,15.6a.215.215,0,0,1-.2.2.762.762,0,0,1-.5.2.763.763,0,0,1-.5-.2.766.766,0,0,1-.2-.5.368.368,0,0,1,.1-.3l6.2-15.6a.215.215,0,0,1,.2-.2.762.762,0,0,1,.5-.2.763.763,0,0,1,.5.2.766.766,0,0,1,.2.5.362.362,0,0,1-.1.3" fill="#fff"/>
          <path id="Path_182" d="M-9726.8-2355.7l-7.7,4.6c-.1.1-.2.1-.4.1a.763.763,0,0,1-.5-.2.766.766,0,0,1-.2-.5.754.754,0,0,1,.4-.7l6.7-4-6.7-4a.842.842,0,0,1-.4-.7.761.761,0,0,1,.2-.5.762.762,0,0,1,.5-.2.6.6,0,0,1,.4.1l7.7,4.6a.67.67,0,0,1,.4.7.671.671,0,0,1-.4.7" fill="#fff"/>
        </g>
      </g>
      <g id="Group_52" transform="translate(269.214 -1169.3)">
        <path id="Path_183" d="M-9742.5-2360.9a7.51,7.51,0,0,0-2.6-.5,10.065,10.065,0,0,0-10.8,9.2v.1a10.066,10.066,0,0,0,9.2,10.8h.1a8.675,8.675,0,0,0,2.3-.1" fill="none" stroke="#a5e9ff" stroke-linecap="round" stroke-linejoin="round" stroke-width="3"/>
        <path id="Path_184" d="M-9701.5-2365v33.2a11.609,11.609,0,0,1-11.6,11.6h-19.6a11.608,11.608,0,0,1-11.6-11.6h0V-2365Z" fill="#a5e9ff"/>
        <g id="Group_51" transform="translate(18.276 13.83)">
          <path id="Path_185" d="M-9735.3-2352.4a.842.842,0,0,0-.4.7.761.761,0,0,0,.2.5.762.762,0,0,0,.5.2.6.6,0,0,0,.4-.1l7.7-4.6a.67.67,0,0,0,.4-.7.841.841,0,0,0-.4-.7l-7.7-4.6c-.1-.1-.2-.1-.4-.1a.763.763,0,0,0-.5.2.766.766,0,0,0-.2.5.754.754,0,0,0,.4.7l6.7,4Z" fill="#fff"/>
          <path id="Path_186" d="M-9745-2363.9l6.2,15.6a.215.215,0,0,0,.2.2.762.762,0,0,0,.5.2.763.763,0,0,0,.5-.2.766.766,0,0,0,.2-.5.368.368,0,0,0-.1-.3l-6.2-15.6a.215.215,0,0,0-.2-.2.762.762,0,0,0-.5-.2.763.763,0,0,0-.5.2.766.766,0,0,0-.2.5.369.369,0,0,0,.1.3" fill="#fff"/>
          <path id="Path_187" d="M-9755.6-2355.7l7.7,4.6c.1.1.2.1.4.1a.763.763,0,0,0,.5-.2.766.766,0,0,0,.2-.5.754.754,0,0,0-.4-.7l-6.7-4,6.7-4a.842.842,0,0,0,.4-.7.761.761,0,0,0-.2-.5.762.762,0,0,0-.5-.2.6.6,0,0,0-.4.1l-7.7,4.6a.67.67,0,0,0-.4.7.842.842,0,0,0,.4.7" fill="#fff"/>
        </g>
      </g>
      <g id="Group_54" transform="translate(431.248 -1341.299)">
        <path id="Path_188" d="M-9714.9-2360.9a7.51,7.51,0,0,1,2.6-.5,10.065,10.065,0,0,1,10.8,9.2v.1a10.066,10.066,0,0,1-9.2,10.8h-.1a8.675,8.675,0,0,1-2.3-.1" fill="none" stroke="#1e3c6b" stroke-linecap="round" stroke-linejoin="round" stroke-width="3"/>
        <path id="Path_290" data-name="Path 290" d="M-9756-2365v17.3c6.9-4.9,18.8-12.6,20.9-12.8,2.7-.2,6,3.7,1.3,6.8-4.5,3-13.9,7.8-14.5,8.1,2.2-.8,4.6-1.6,7-2.3.2-.1.3-.1.5-.2h0c3.1-1,6.2-1.9,8.5-2.4l1.5-.3a8.813,8.813,0,0,1,2.9-.3c1.6.4,2.3,2.3,1.6,4.1a9.18,9.18,0,0,1-.7,1.4,7.892,7.892,0,0,1-3.8,2.5l-3.3,1.2-1.9.7-5.5,2-1.9.7-3,1.1h.1a.367.367,0,0,0,.3-.1,2.546,2.546,0,0,0,.7-.2h.1c.2-.1.5-.1.8-.2.4-.1.9-.2,1.4-.3.7-.2,1.4-.3,2.2-.5,1.3-.3,2.8-.7,4.3-1,.6-.1,1.2-.3,1.8-.4,4.1-.9,8-1.7,9-1.6a1.888,1.888,0,0,1,1.3.7,3.1,3.1,0,0,1,.7,1.4c.4,2.1-1.4,5.3-8.8,6.7-11.5,2.2-12,3.2-12,3.2s14.2-2,17.2-1.7c2.9.2,3,7.9-11.1,7.9l-1.5,3.5h15.2a11.608,11.608,0,0,0,11.6-11.6v-33.3H-9756Z" fill="#1e3c6b"/>
        <g id="Group_53" transform="translate(6.624 13.83)">
          <path id="Path_291" data-name="Path 291" d="M-9747.4-2361.9c-.2.1-.3.1-.5.2l.1-.1c.1,0,.2-.1.4-.1Z" fill="#fff"/>
          <path id="Path_292" data-name="Path 292" d="M-9747.4-2352.6a22.515,22.515,0,0,1-2.2.5l-.4-.3,1.9-.7Z" fill="#fff"/>
          <path id="Path_293" data-name="Path 293" d="M-9740.7-2355.7l-.7,1.6c-.6.1-1.2.3-1.8.4l.5-1.4Z" fill="#fff"/>
          <path id="Path_294" data-name="Path 294" d="M-9737.4-2364.6l-1.5.3.1-.3a.215.215,0,0,1,.2-.2.762.762,0,0,1,.5-.2.763.763,0,0,1,.5.2C-9737.5-2364.7-9737.4-2364.7-9737.4-2364.6Z" fill="#fff"/>
          <path id="Path_295" data-name="Path 295" d="M-9726.4-2356.4a1.012,1.012,0,0,1-.4.7l-3.5,2.1a2.344,2.344,0,0,0-.7-1.4l2.4-1.4-4.9-3a3.7,3.7,0,0,0,.7-1.4l6,3.6A.907.907,0,0,1-9726.4-2356.4Z" fill="#fff"/>
        </g>
      </g>
      <g id="Group_56" transform="translate(337.811 -1338.5)">
        <g id="Group_55" transform="translate(67.018)">
          <path id="Path_296" data-name="Path 296" d="M-9729.5-2350.6c-.8-3.3-2.4-8.5-5.7-11.9-5.8-6-8.4-.1-5.6,5.3,1.8,3.4,2,12.3,1.8,17.3h0" fill="none" stroke="#000" stroke-linecap="round" stroke-linejoin="round" stroke-width="0.5"/>
          <path id="Path_297" data-name="Path 297" d="M-9749.7-2320.7c.2-.3.3-.6.5-.9,3.3-6,7.1-13,10.2-18.2h0c2.3-3.8,4.1-6.6,5-7.4.8-.7,2.4-1.9,4.4-3.3,6.9-4.9,18.8-12.6,20.9-12.8,2.7-.2,6,3.7,1.3,6.8-4.5,3-13.9,7.8-14.5,8.1" fill="none" stroke="#000" stroke-linecap="round" stroke-linejoin="round" stroke-width="0.5"/>
          <path id="Path_298" data-name="Path 298" d="M-9720-2340.2h.2a.367.367,0,0,0,.3-.1,2.546,2.546,0,0,0,.7-.2h.1c.2-.1.5-.1.8-.2.4-.1.9-.2,1.4-.3.7-.2,1.4-.3,2.2-.5,1.3-.3,2.8-.7,4.3-1,.6-.1,1.2-.3,1.8-.4,4.1-.9,8-1.7,9-1.6a1.888,1.888,0,0,1,1.3.7,3.1,3.1,0,0,1,.7,1.4c.4,2.1-1.4,5.3-8.8,6.7-11.5,2.2-12,3.2-12,3.2s14.2-2,17.2-1.7c2.9.2,3,7.9-11.1,7.9l-1.5,3.5-8.7,20.6-.5,1.1" fill="none" stroke="#000" stroke-linecap="round" stroke-linejoin="round" stroke-width="0.5"/>
          <path id="Path_299" data-name="Path 299" d="M-9720-2340.2h.1l3-1.1,1.9-.7,5.5-1.9,1.9-.7,3.3-1.2a7.892,7.892,0,0,0,3.8-2.5,3.7,3.7,0,0,0,.7-1.4c.7-1.9,0-3.7-1.6-4.1a8.806,8.806,0,0,0-2.9.3l-1.5.3c-2.4.6-5.4,1.4-8.5,2.4h0c-.2.1-.3.1-.5.2-2.3.7-4.7,1.5-7,2.3h0" fill="none" stroke="#000" stroke-linecap="round" stroke-linejoin="round" stroke-width="0.5"/>
        </g>
        <path id="Path_195" d="M-9690.5-2182.5c30.5-1,37.2-94,38.2-97.4,2.1-6.7-4.4-8.3-3.5-13.7.9-5.3.2-7.7.2-7.7-13.9-2.2-27.3-19.7-27.3-19.7s-1.4,1-5.4,4.4-8.4-1.8-12.9,3.4c-3,3.4-35.6,58.1-35.6,58.1" fill="none" stroke="#000" stroke-linecap="round" stroke-linejoin="round" stroke-width="0.5"/>
        <path id="Path_300" data-name="Path 300" d="M-9653.3-2286.8h0q.149.6.3,1.2c-13.3-.7-41.2-14.3-41.4-30" fill="none" stroke="#000" stroke-linecap="round" stroke-linejoin="round" stroke-width="0.5"/>
        <path id="Path_197" d="M-9756-2264.2s17.5-15.1,27.6-5.6" fill="none" stroke="#000" stroke-linecap="round" stroke-linejoin="round" stroke-width="0.5"/>
      </g>
    </g>
  </g>
</svg>
