<svg xmlns="http://www.w3.org/2000/svg" width="24" height="24" viewBox="0 0 24 24">
  <g id="Face" transform="translate(-1261 -15495)">
    <rect id="Rectangle_56" data-name="Rectangle 56" width="24" height="24" transform="translate(1261 15495)" fill="none"/>
    <path id="instagram" d="M16.2,2H7.813C4.171,2,2,4.17,2,7.81v8.37C2,19.83,4.171,22,7.813,22h8.374C19.829,22,22,19.83,22,16.19V7.81C22.01,4.17,19.839,2,16.2,2Z" transform="translate(1261 15495)" fill="#3b5998"/>
    <path id="Path_235" data-name="Path 235" d="M42.237,26.753H40.869v5.01H38.8v-5.01h-.985V24.993H38.8V23.853a1.943,1.943,0,0,1,2.09-2.09l1.535.006v1.709H41.309a.422.422,0,0,0-.439.48v1.036h1.548Z" transform="translate(1233.188 15480.237)" fill="#fff"/>
  </g>
</svg>
