<svg xmlns="http://www.w3.org/2000/svg" xmlns:xlink="http://www.w3.org/1999/xlink" width="24" height="24" viewBox="0 0 24 24">
  <defs>
    <radialGradient id="radial-gradient" cx="0.054" cy="0.919" r="1.178" gradientTransform="translate(0 0)" gradientUnits="objectBoundingBox">
      <stop offset="0" stop-color="#fa8f21"/>
      <stop offset="1" stop-color="#d82d7e"/>
    </radialGradient>
    <radialGradient id="radial-gradient-2" cx="0.73" cy="1" r="1.784" gradientTransform="translate(0.443 2.204) rotate(-130.419)" gradientUnits="objectBoundingBox">
      <stop offset="0" stop-color="#8c3aaa" stop-opacity="0"/>
      <stop offset="1" stop-color="#8c3aaa"/>
    </radialGradient>
  </defs>
  <g id="Instag" transform="translate(-1297 -15495)">
    <rect id="Rectangle_56" data-name="Rectangle 56" width="24" height="24" transform="translate(1297 15495)" fill="none"/>
    <path id="instagram" d="M16.2,2H7.813C4.171,2,2,4.17,2,7.81v8.37C2,19.83,4.171,22,7.813,22h8.374C19.829,22,22,19.83,22,16.19V7.81C22.01,4.17,19.839,2,16.2,2Z" transform="translate(1297 15495)" fill="url(#radial-gradient)"/>
    <path id="instagram-2" data-name="instagram" d="M16.2,2H7.813C4.171,2,2,4.17,2,7.81v8.37C2,19.83,4.171,22,7.813,22h8.374C19.829,22,22,19.83,22,16.19V7.81C22.01,4.17,19.839,2,16.2,2Z" transform="translate(1297 15495)" fill="url(#radial-gradient-2)"/>
    <g id="instagram-2-1-logo" transform="translate(1300.409 15498.388)">
      <path id="Path_238" data-name="Path 238" d="M439.851,445.52a2,2,0,1,1,2,2,2,2,0,0,1-2-2m-1.081,0a3.081,3.081,0,1,0,3.081-3.081,3.081,3.081,0,0,0-3.081,3.081m5.564-3.2a.72.72,0,1,0,.72-.72h0a.72.72,0,0,0-.72.72m-4.907,8.087a3.315,3.315,0,0,1-1.114-.206,1.987,1.987,0,0,1-1.139-1.138,3.314,3.314,0,0,1-.206-1.114c-.029-.632-.035-.822-.035-2.425s.006-1.792.035-2.425a3.339,3.339,0,0,1,.206-1.114,1.986,1.986,0,0,1,1.139-1.139,3.315,3.315,0,0,1,1.114-.206c.632-.029.823-.035,2.424-.035s1.792.006,2.425.035a3.338,3.338,0,0,1,1.114.206,1.986,1.986,0,0,1,1.139,1.139,3.314,3.314,0,0,1,.206,1.114c.029.633.035.823.035,2.425s-.006,1.792-.035,2.425a3.33,3.33,0,0,1-.206,1.114,1.987,1.987,0,0,1-1.139,1.138,3.314,3.314,0,0,1-1.114.206c-.632.029-.822.035-2.425.035s-1.792-.006-2.424-.035m-.05-10.848a4.4,4.4,0,0,0-1.456.279,3.068,3.068,0,0,0-1.755,1.755,4.4,4.4,0,0,0-.279,1.456c-.03.64-.036.844-.036,2.474s.007,1.834.036,2.474a4.4,4.4,0,0,0,.279,1.457,3.068,3.068,0,0,0,1.755,1.755,4.405,4.405,0,0,0,1.456.279c.64.029.844.036,2.474.036s1.834-.007,2.474-.036a4.4,4.4,0,0,0,1.456-.279,3.068,3.068,0,0,0,1.755-1.755,4.388,4.388,0,0,0,.279-1.457c.029-.64.036-.844.036-2.474s-.007-1.834-.036-2.474a4.4,4.4,0,0,0-.279-1.456,3.069,3.069,0,0,0-1.755-1.755,4.393,4.393,0,0,0-1.456-.279c-.64-.029-.844-.036-2.474-.036s-1.834.007-2.474.036" transform="translate(-433.259 -436.908)" fill="#fff"/>
    </g>
  </g>
</svg>
