<svg xmlns="http://www.w3.org/2000/svg" xmlns:xlink="http://www.w3.org/1999/xlink" width="973.027" height="93.546" viewBox="0 0 973.027 93.546">
  <defs>
    <linearGradient id="linear-gradient" x1="0.5" x2="0.5" y2="1" gradientUnits="objectBoundingBox">
      <stop offset="0" stop-color="#1e3c6b" stop-opacity="0.039"/>
      <stop offset="1" stop-color="#1e3c6b" stop-opacity="0"/>
    </linearGradient>
  </defs>
  <path id="Intellect_Driven" data-name="Intellect Driven" d="M-309.5,33.343V-56.267h19.928V33.343Zm82.5,0V-1.815a10.556,10.556,0,0,0-2.983-7.806,10.235,10.235,0,0,0-7.552-2.983,11.358,11.358,0,0,0-5.585,1.333,9.693,9.693,0,0,0-3.808,3.808,11.3,11.3,0,0,0-1.4,5.648L-255.811-5.5a24.8,24.8,0,0,1,3.173-12.693,21.735,21.735,0,0,1,8.821-8.441,26.9,26.9,0,0,1,12.756-2.983,22.681,22.681,0,0,1,12.122,3.237,23.727,23.727,0,0,1,8.314,8.568,23.127,23.127,0,0,1,3.046,11.677V33.343Zm-40.744,0V-28.343h19.42V33.343Zm86.945,0v-87.2h19.42v87.2Zm-13.962-45.186v-16.5h47.344v16.5Zm91.388,46.582A37.59,37.59,0,0,1-121.2,30.615a30.825,30.825,0,0,1-12.249-11.487A31.549,31.549,0,0,1-137.895,2.5a31.565,31.565,0,0,1,4.379-16.564,31.568,31.568,0,0,1,11.868-11.487,33.983,33.983,0,0,1,16.881-4.189A32.267,32.267,0,0,1-88.647-25.8,28.645,28.645,0,0,1-77.668-14.889a31.6,31.6,0,0,1,4,15.993,33.981,33.981,0,0,1-.19,3.491,41.9,41.9,0,0,1-.7,4.252l-53.183.127V-4.354l44.932-.127L-91.185,1.1a23.581,23.581,0,0,0-1.65-8.821,11.442,11.442,0,0,0-4.506-5.331,13.646,13.646,0,0,0-7.3-1.84,14.7,14.7,0,0,0-7.933,2.094,13.884,13.884,0,0,0-5.2,5.9,21.156,21.156,0,0,0-1.84,9.266A20.389,20.389,0,0,0-117.65,11.7a14.1,14.1,0,0,0,5.585,5.966,16.806,16.806,0,0,0,8.568,2.094,20.642,20.642,0,0,0,8.25-1.587,18.11,18.11,0,0,0,6.473-4.76l10.662,10.662a28.784,28.784,0,0,1-11.043,8A36.985,36.985,0,0,1-103.371,34.74Zm45.44-1.4V-58.806h19.42V33.343Zm39.474,0V-58.806H.964V33.343Zm69.937,1.4a37.59,37.59,0,0,1-17.833-4.125A30.825,30.825,0,0,1,21.4,19.128,31.548,31.548,0,0,1,16.957,2.5a31.565,31.565,0,0,1,4.379-16.564A31.568,31.568,0,0,1,33.2-25.551,33.983,33.983,0,0,1,50.085-29.74,32.267,32.267,0,0,1,66.2-25.8,28.645,28.645,0,0,1,77.184-14.889a31.6,31.6,0,0,1,4,15.993,33.989,33.989,0,0,1-.19,3.491,41.9,41.9,0,0,1-.7,4.252l-53.183.127V-4.354l44.932-.127L63.666,1.1a23.58,23.58,0,0,0-1.65-8.821,11.442,11.442,0,0,0-4.506-5.331,13.645,13.645,0,0,0-7.3-1.84,14.7,14.7,0,0,0-7.933,2.094,13.884,13.884,0,0,0-5.2,5.9,21.157,21.157,0,0,0-1.84,9.266A20.39,20.39,0,0,0,37.2,11.7a14.1,14.1,0,0,0,5.585,5.966,16.806,16.806,0,0,0,8.568,2.094,20.642,20.642,0,0,0,8.25-1.587,18.11,18.11,0,0,0,6.473-4.76L76.74,24.078a28.784,28.784,0,0,1-11.043,8A36.985,36.985,0,0,1,51.481,34.74Zm75.268,0a35.687,35.687,0,0,1-17.262-4.189A31.389,31.389,0,0,1,97.3,19,31.313,31.313,0,0,1,92.86,2.5a30.884,30.884,0,0,1,4.506-16.564,32.013,32.013,0,0,1,12.249-11.487A35.95,35.95,0,0,1,127-29.74a34.6,34.6,0,0,1,13.264,2.475,30.8,30.8,0,0,1,10.725,7.425L138.554-7.4a13.3,13.3,0,0,0-5.014-3.554A17.5,17.5,0,0,0,127-12.1a14.757,14.757,0,0,0-7.425,1.84A13.3,13.3,0,0,0,114.5-5.179a15.017,15.017,0,0,0-1.84,7.552,15.373,15.373,0,0,0,1.84,7.616,13.5,13.5,0,0,0,5.141,5.2A14.464,14.464,0,0,0,127,17.1a16.483,16.483,0,0,0,6.791-1.333,15.063,15.063,0,0,0,5.141-3.744l12.312,12.439a32.669,32.669,0,0,1-10.916,7.679A34.244,34.244,0,0,1,126.749,34.74Zm47.217-1.4v-87.2h19.42v87.2ZM160-11.843v-16.5h47.344v16.5ZM267.893,33.343V15.827h22.212a29.866,29.866,0,0,0,14.216-3.237,22.262,22.262,0,0,0,9.393-9.456,30.994,30.994,0,0,0,3.3-14.724,29.771,29.771,0,0,0-3.364-14.6,23.342,23.342,0,0,0-9.393-9.393,29.026,29.026,0,0,0-14.152-3.3H267.258V-56.267h23.1a52.567,52.567,0,0,1,18.722,3.237,44.62,44.62,0,0,1,14.977,9.266,41.8,41.8,0,0,1,9.9,14.216,45.656,45.656,0,0,1,3.491,18.087,45.787,45.787,0,0,1-3.491,18.024,41.41,41.41,0,0,1-9.837,14.216,45.278,45.278,0,0,1-14.914,9.266,51.3,51.3,0,0,1-18.595,3.3Zm-13.454,0V-56.267h19.928V33.343Zm100.273,0V-28.343h19.42V33.343Zm19.42-33.89-8.123-6.346q2.412-10.789,8.123-16.754T390-29.613A21.1,21.1,0,0,1,397.8-28.28a15.74,15.74,0,0,1,5.9,4.125l-11.55,14.6a8.457,8.457,0,0,0-3.173-2.158,11.54,11.54,0,0,0-4.316-.762,10.133,10.133,0,0,0-7.679,2.983Q374.131-6.512,374.131-.546Zm41,33.89V-28.343h19.42V33.343ZM424.9-36.848a10.018,10.018,0,0,1-7.552-3.11,10.508,10.508,0,0,1-2.983-7.552,10.449,10.449,0,0,1,2.983-7.616,10.123,10.123,0,0,1,7.552-3.046,9.916,9.916,0,0,1,7.489,3.046,10.572,10.572,0,0,1,2.919,7.616,10.631,10.631,0,0,1-2.919,7.552A9.815,9.815,0,0,1,424.9-36.848Zm49.121,70.191L447.876-28.343h20.943l17.77,51.406H477.45l17.77-51.406h20.562l-26.147,61.56Zm83.9,1.4a37.59,37.59,0,0,1-17.833-4.125,30.825,30.825,0,0,1-12.248-11.487A31.548,31.548,0,0,1,523.4,2.5a31.564,31.564,0,0,1,4.379-16.564,31.568,31.568,0,0,1,11.868-11.487,33.983,33.983,0,0,1,16.881-4.189,32.267,32.267,0,0,1,16.12,3.935,28.645,28.645,0,0,1,10.979,10.916,31.6,31.6,0,0,1,4,15.993,34,34,0,0,1-.19,3.491,41.932,41.932,0,0,1-.7,4.252l-53.183.127V-4.354l44.932-.127L570.107,1.1a23.582,23.582,0,0,0-1.65-8.821,11.442,11.442,0,0,0-4.506-5.331,13.645,13.645,0,0,0-7.3-1.84,14.7,14.7,0,0,0-7.933,2.094,13.885,13.885,0,0,0-5.2,5.9,21.156,21.156,0,0,0-1.84,9.266,20.39,20.39,0,0,0,1.967,9.329,14.1,14.1,0,0,0,5.585,5.966,16.806,16.806,0,0,0,8.568,2.094,20.642,20.642,0,0,0,8.25-1.587,18.111,18.111,0,0,0,6.473-4.76l10.662,10.662a28.785,28.785,0,0,1-11.043,8A36.985,36.985,0,0,1,557.922,34.74Zm86.184-1.4V-1.815a10.556,10.556,0,0,0-2.983-7.806,10.234,10.234,0,0,0-7.552-2.983,11.358,11.358,0,0,0-5.585,1.333,9.694,9.694,0,0,0-3.808,3.808,11.3,11.3,0,0,0-1.4,5.648L615.294-5.5a24.8,24.8,0,0,1,3.173-12.693,21.736,21.736,0,0,1,8.821-8.441,26.9,26.9,0,0,1,12.756-2.983,22.681,22.681,0,0,1,12.122,3.237,23.726,23.726,0,0,1,8.314,8.568,23.127,23.127,0,0,1,3.046,11.677V33.343Zm-40.744,0V-28.343h19.42V33.343Z" transform="translate(309.501 58.806)" fill="url(#linear-gradient)"/>
</svg>
