<svg xmlns="http://www.w3.org/2000/svg" xmlns:xlink="http://www.w3.org/1999/xlink" width="100" height="100" viewBox="0 0 100 100">
  <defs>
    <linearGradient id="linear-gradient" x1="1" y1="0.539" x2="0" y2="0.55" gradientUnits="objectBoundingBox">
      <stop offset="0" stop-color="#a5e9ff"/>
      <stop offset="1" stop-color="#1e3c6b"/>
    </linearGradient>
    <linearGradient id="linear-gradient-2" x1="0" y1="0.461" x2="1" y2="0.45" xlink:href="#linear-gradient"/>
  </defs>
  <g id="Logo_Footer" data-name="Logo Footer" transform="translate(-399 -5244)">
    <g id="Group_222" data-name="Group 222" transform="translate(13948.693 11284.797)">
      <g id="Group_219" data-name="Group 219" transform="translate(-13543.693 -6015.276)">
        <path id="Path_287" data-name="Path 287" d="M1569.677,1216.252l-19.175-19.175a4.67,4.67,0,1,0-3.375,3.375l19.175,19.175-7.044,7.044,3.376,3.375,17.464-17.463-3.375-3.376Zm-24.948-21.573a1.764,1.764,0,1,1,0,2.494A1.764,1.764,0,0,1,1544.729,1194.679Z" transform="translate(-1541.307 -1191.257)" fill="url(#linear-gradient)"/>
        <path id="Path_288" data-name="Path 288" d="M1551.727,1205.052l19.175,19.175a4.67,4.67,0,1,0,3.375-3.375l-19.175-19.175,7.044-7.044-3.375-3.375-17.464,17.464,3.375,3.375Zm24.948,21.573a1.764,1.764,0,1,1,0-2.495A1.764,1.764,0,0,1,1576.675,1226.624Z" transform="translate(-1492.097 -1181.087)" fill="url(#linear-gradient-2)"/>
      </g>
      <g id="Group_220" data-name="Group 220" transform="translate(-13475.211 -6034.797) rotate(90)">
        <path id="Path_287-2" data-name="Path 287" d="M28.371,25,9.2,5.82A4.67,4.67,0,1,0,5.82,9.2L25,28.371l-7.044,7.044,3.375,3.375L38.79,21.326l-3.375-3.375ZM3.422,3.422a1.764,1.764,0,1,1,0,2.495A1.764,1.764,0,0,1,3.422,3.422Z" transform="translate(0 0)" fill="url(#linear-gradient)"/>
        <path id="Path_288-2" data-name="Path 288" d="M10.419,13.795,29.595,32.97a4.67,4.67,0,1,0,3.375-3.375L13.795,10.42l7.044-7.044L17.464,0,0,17.464l3.375,3.375ZM35.368,35.368a1.764,1.764,0,1,1,0-2.495A1.764,1.764,0,0,1,35.368,35.368Z" transform="translate(49.21 10.17)" fill="url(#linear-gradient-2)"/>
      </g>
    </g>
    <rect id="Rectangle_113" data-name="Rectangle 113" width="100" height="100" transform="translate(399 5244)" fill="none"/>
  </g>
</svg>
