<svg xmlns="http://www.w3.org/2000/svg" xmlns:xlink="http://www.w3.org/1999/xlink" width="517.994" height="60.106" viewBox="0 0 517.994 60.106">
  <defs>
    <linearGradient id="linear-gradient" x1="0.5" x2="0.5" y2="1" gradientUnits="objectBoundingBox">
      <stop offset="0" stop-color="#1e3c6b" stop-opacity="0.039"/>
      <stop offset="1" stop-color="#1e3c6b" stop-opacity="0"/>
    </linearGradient>
  </defs>
  <path id="Our_Services" data-name="Our Services" d="M-227.878.984a31.259,31.259,0,0,1-12.1-2.3,30.343,30.343,0,0,1-9.717-6.4,29,29,0,0,1-6.478-9.553,30.011,30.011,0,0,1-2.3-11.767,29.923,29.923,0,0,1,2.3-11.808,29.276,29.276,0,0,1,6.4-9.471,29.19,29.19,0,0,1,9.635-6.314,31.758,31.758,0,0,1,12.1-2.255,31.537,31.537,0,0,1,12.013,2.255,29.652,29.652,0,0,1,9.676,6.314,28.849,28.849,0,0,1,6.437,9.512,30.223,30.223,0,0,1,2.3,11.849,30.011,30.011,0,0,1-2.3,11.767,29.161,29.161,0,0,1-6.4,9.512,29.73,29.73,0,0,1-9.635,6.355A30.827,30.827,0,0,1-227.878.984Zm-.164-11.726a17.51,17.51,0,0,0,9.061-2.3,15.577,15.577,0,0,0,6.027-6.437,20.581,20.581,0,0,0,2.132-9.553,21.239,21.239,0,0,0-1.23-7.421,16.606,16.606,0,0,0-3.526-5.74,15.3,15.3,0,0,0-5.453-3.69,18.615,18.615,0,0,0-7.011-1.271A17.76,17.76,0,0,0-237.1-44.9a15.427,15.427,0,0,0-6.027,6.314,20.269,20.269,0,0,0-2.132,9.553,21.584,21.584,0,0,0,1.23,7.462,16.858,16.858,0,0,0,3.485,5.781,15.273,15.273,0,0,0,5.453,3.731A18.409,18.409,0,0,0-228.042-10.742ZM-168.756.9a20.314,20.314,0,0,1-9.717-2.255,16.673,16.673,0,0,1-6.6-6.232,17.469,17.469,0,0,1-2.378-9.143V-39.852h12.546v22.96a8.2,8.2,0,0,0,.7,3.526,5.158,5.158,0,0,0,2.091,2.3,6.52,6.52,0,0,0,3.362.82,5.755,5.755,0,0,0,4.428-1.763,6.886,6.886,0,0,0,1.64-4.879v-22.96h12.546V-16.81a17.629,17.629,0,0,1-2.378,9.225,16.744,16.744,0,0,1-6.56,6.232A20.073,20.073,0,0,1-168.756.9ZM-138.17,0V-39.852h12.546V0Zm12.546-21.894-5.248-4.1q1.558-6.97,5.248-10.824t10.25-3.854a13.63,13.63,0,0,1,5.043.861,10.169,10.169,0,0,1,3.813,2.665l-7.462,9.43a5.464,5.464,0,0,0-2.05-1.394,7.455,7.455,0,0,0-2.788-.492,6.546,6.546,0,0,0-4.961,1.927Q-125.624-25.748-125.624-21.894ZM-59.45.9A29.371,29.371,0,0,1-71.709-1.435,28.544,28.544,0,0,1-81.1-8.528l8.364-8.282a21.092,21.092,0,0,0,6.191,4.961,16.968,16.968,0,0,0,7.913,1.763,11.566,11.566,0,0,0,6.355-1.476,4.644,4.644,0,0,0,2.255-4.1A5.212,5.212,0,0,0-51.5-19.516a12.657,12.657,0,0,0-3.9-2.542q-2.419-1.066-5.33-2.05T-66.5-26.363a24.133,24.133,0,0,1-5.289-3.2,14.437,14.437,0,0,1-3.9-4.838,16.165,16.165,0,0,1-1.476-7.339,16.107,16.107,0,0,1,2.583-9.184A16.231,16.231,0,0,1-67.4-56.785a26.174,26.174,0,0,1,10.578-2.009,28.251,28.251,0,0,1,11.111,2.132,22.823,22.823,0,0,1,8.323,5.822l-8.364,8.282a19.509,19.509,0,0,0-5.289-4.018,13.466,13.466,0,0,0-6.027-1.312,9.733,9.733,0,0,0-5.33,1.271,4.089,4.089,0,0,0-1.968,3.649A4.609,4.609,0,0,0-62.894-39.4,12.911,12.911,0,0,0-59-37.064q2.419.984,5.33,1.968a60.5,60.5,0,0,1,5.781,2.3A23.6,23.6,0,0,1-42.6-29.479,14.85,14.85,0,0,1-38.7-24.4a17.454,17.454,0,0,1,1.476,7.585q0,8.282-5.9,13T-59.45.9ZM-6.642.9A24.284,24.284,0,0,1-18.163-1.763a19.914,19.914,0,0,1-7.913-7.421,20.381,20.381,0,0,1-2.87-10.742,20.392,20.392,0,0,1,2.829-10.7,20.394,20.394,0,0,1,7.667-7.421A21.955,21.955,0,0,1-7.544-40.754,20.846,20.846,0,0,1,2.87-38.212,18.506,18.506,0,0,1,9.963-31.16a20.416,20.416,0,0,1,2.583,10.332,21.958,21.958,0,0,1-.123,2.255,27.07,27.07,0,0,1-.451,2.747l-34.358.082v-8.61l29.028-.082L1.23-20.828a15.234,15.234,0,0,0-1.066-5.7,7.392,7.392,0,0,0-2.911-3.444A8.815,8.815,0,0,0-7.462-31.16a9.5,9.5,0,0,0-5.125,1.353,8.97,8.97,0,0,0-3.362,3.813,13.668,13.668,0,0,0-1.189,5.986,13.173,13.173,0,0,0,1.271,6.027,9.112,9.112,0,0,0,3.608,3.854A10.857,10.857,0,0,0-6.724-8.774,13.335,13.335,0,0,0-1.394-9.8a11.7,11.7,0,0,0,4.182-3.075L9.676-5.986A18.6,18.6,0,0,1,2.542-.82,23.894,23.894,0,0,1-6.642.9ZM22.714,0V-39.852H35.26V0ZM35.26-21.894l-5.248-4.1q1.558-6.97,5.248-10.824t10.25-3.854a13.63,13.63,0,0,1,5.043.861,10.169,10.169,0,0,1,3.813,2.665L46.9-27.716a5.464,5.464,0,0,0-2.05-1.394,7.455,7.455,0,0,0-2.788-.492A6.546,6.546,0,0,0,37.1-27.675Q35.26-25.748,35.26-21.894ZM74.046,0,57.154-39.852h13.53l11.48,33.21h-5.9l11.48-33.21h13.284L84.132-.082Zm35.588,0V-39.852H122.18V0Zm6.314-45.346a6.472,6.472,0,0,1-4.879-2.009,6.788,6.788,0,0,1-1.927-4.879,6.75,6.75,0,0,1,1.927-4.92,6.54,6.54,0,0,1,4.879-1.968,6.406,6.406,0,0,1,4.838,1.968,6.83,6.83,0,0,1,1.886,4.92,6.868,6.868,0,0,1-1.886,4.879A6.341,6.341,0,0,1,115.948-45.346ZM154.406.9A23.055,23.055,0,0,1,143.254-1.8a20.279,20.279,0,0,1-7.872-7.462,20.229,20.229,0,0,1-2.87-10.66,19.952,19.952,0,0,1,2.911-10.7,20.681,20.681,0,0,1,7.913-7.421,23.225,23.225,0,0,1,11.234-2.706,22.354,22.354,0,0,1,8.569,1.6,19.9,19.9,0,0,1,6.929,4.8l-8.036,8.036a8.591,8.591,0,0,0-3.239-2.3,11.3,11.3,0,0,0-4.223-.738,9.533,9.533,0,0,0-4.8,1.189,8.593,8.593,0,0,0-3.28,3.28,9.7,9.7,0,0,0-1.189,4.879,9.932,9.932,0,0,0,1.189,4.92,8.721,8.721,0,0,0,3.321,3.362,9.344,9.344,0,0,0,4.756,1.23,10.649,10.649,0,0,0,4.387-.861,9.732,9.732,0,0,0,3.321-2.419l7.954,8.036A21.105,21.105,0,0,1,163.18-.779,22.123,22.123,0,0,1,154.406.9Zm44.2,0a24.284,24.284,0,0,1-11.521-2.665,19.914,19.914,0,0,1-7.913-7.421,20.381,20.381,0,0,1-2.87-10.742,20.392,20.392,0,0,1,2.829-10.7,20.394,20.394,0,0,1,7.667-7.421A21.955,21.955,0,0,1,197.7-40.754a20.845,20.845,0,0,1,10.414,2.542,18.506,18.506,0,0,1,7.093,7.052,20.416,20.416,0,0,1,2.583,10.332,21.957,21.957,0,0,1-.123,2.255,27.067,27.067,0,0,1-.451,2.747l-34.358.082v-8.61l29.028-.082-5.412,3.608a15.233,15.233,0,0,0-1.066-5.7,7.392,7.392,0,0,0-2.911-3.444,8.816,8.816,0,0,0-4.715-1.189,9.5,9.5,0,0,0-5.125,1.353,8.97,8.97,0,0,0-3.362,3.813,13.668,13.668,0,0,0-1.189,5.986,13.173,13.173,0,0,0,1.271,6.027,9.112,9.112,0,0,0,3.608,3.854,10.857,10.857,0,0,0,5.535,1.353,13.335,13.335,0,0,0,5.33-1.025,11.7,11.7,0,0,0,4.182-3.075l6.888,6.888A18.6,18.6,0,0,1,207.788-.82,23.894,23.894,0,0,1,198.6.9Zm43.87.082a26.931,26.931,0,0,1-6.929-.9A25.757,25.757,0,0,1,229.231-2.5,21.021,21.021,0,0,1,224.27-6.4l7.134-7.216a13.891,13.891,0,0,0,4.674,3.321,14.514,14.514,0,0,0,5.9,1.189,7.157,7.157,0,0,0,3.4-.656,2,2,0,0,0,1.189-1.8,2.45,2.45,0,0,0-1.435-2.255,17.618,17.618,0,0,0-3.649-1.394q-2.214-.615-4.674-1.353a20.935,20.935,0,0,1-4.674-2.05,10.26,10.26,0,0,1-3.608-3.649,11.461,11.461,0,0,1-1.394-5.945,11.408,11.408,0,0,1,1.968-6.683,13.3,13.3,0,0,1,5.576-4.469A20.245,20.245,0,0,1,243.13-41a24.539,24.539,0,0,1,9.389,1.763,16.843,16.843,0,0,1,7.011,5.207L252.4-26.814a10.555,10.555,0,0,0-4.223-3.116,12.6,12.6,0,0,0-4.551-.9,6.556,6.556,0,0,0-3.2.615,1.934,1.934,0,0,0-1.066,1.763,2.211,2.211,0,0,0,1.394,1.968,16.875,16.875,0,0,0,3.608,1.312q2.214.574,4.674,1.394a21.509,21.509,0,0,1,4.674,2.214,10.973,10.973,0,0,1,3.608,3.731,11.822,11.822,0,0,1,1.394,6.109,11.168,11.168,0,0,1-4.387,9.266Q249.936.984,242.474.984Z" transform="translate(258.464 59.122)" fill="url(#linear-gradient)"/>
</svg>
