<svg xmlns="http://www.w3.org/2000/svg" xmlns:xlink="http://www.w3.org/1999/xlink" width="391.632" height="59.86" viewBox="0 0 391.632 59.86">
  <defs>
    <linearGradient id="linear-gradient" x1="0.5" x2="0.5" y2="1" gradientUnits="objectBoundingBox">
      <stop offset="0" stop-color="#1e3c6b" stop-opacity="0.039"/>
      <stop offset="1" stop-color="#1e3c6b" stop-opacity="0"/>
    </linearGradient>
  </defs>
  <path id="Our_Team" data-name="Our Team" d="M-165.722.984a31.259,31.259,0,0,1-12.1-2.3,30.343,30.343,0,0,1-9.717-6.4,29,29,0,0,1-6.478-9.553,30.011,30.011,0,0,1-2.3-11.767,29.923,29.923,0,0,1,2.3-11.808,29.276,29.276,0,0,1,6.4-9.471,29.19,29.19,0,0,1,9.635-6.314,31.758,31.758,0,0,1,12.1-2.255,31.537,31.537,0,0,1,12.013,2.255,29.652,29.652,0,0,1,9.676,6.314A28.849,28.849,0,0,1-137.76-40.8a30.223,30.223,0,0,1,2.3,11.849,30.011,30.011,0,0,1-2.3,11.767,29.161,29.161,0,0,1-6.4,9.512,29.73,29.73,0,0,1-9.635,6.355A30.827,30.827,0,0,1-165.722.984Zm-.164-11.726a17.51,17.51,0,0,0,9.061-2.3,15.577,15.577,0,0,0,6.027-6.437,20.581,20.581,0,0,0,2.132-9.553,21.239,21.239,0,0,0-1.23-7.421,16.606,16.606,0,0,0-3.526-5.74,15.3,15.3,0,0,0-5.453-3.69,18.615,18.615,0,0,0-7.011-1.271,17.76,17.76,0,0,0-9.061,2.255,15.427,15.427,0,0,0-6.027,6.314,20.269,20.269,0,0,0-2.132,9.553,21.584,21.584,0,0,0,1.23,7.462,16.858,16.858,0,0,0,3.485,5.781,15.273,15.273,0,0,0,5.453,3.731A18.409,18.409,0,0,0-165.886-10.742ZM-106.6.9a20.314,20.314,0,0,1-9.717-2.255,16.673,16.673,0,0,1-6.6-6.232,17.47,17.47,0,0,1-2.378-9.143V-39.852h12.546v22.96a8.2,8.2,0,0,0,.7,3.526,5.158,5.158,0,0,0,2.091,2.3,6.52,6.52,0,0,0,3.362.82,5.755,5.755,0,0,0,4.428-1.763,6.886,6.886,0,0,0,1.64-4.879v-22.96h12.546V-16.81a17.629,17.629,0,0,1-2.378,9.225,16.744,16.744,0,0,1-6.56,6.232A20.073,20.073,0,0,1-106.6.9ZM-76.014,0V-39.852h12.546V0Zm12.546-21.894-5.248-4.1q1.558-6.97,5.248-10.824t10.25-3.854a13.63,13.63,0,0,1,5.043.861,10.169,10.169,0,0,1,3.813,2.665l-7.462,9.43a5.464,5.464,0,0,0-2.05-1.394,7.455,7.455,0,0,0-2.788-.492,6.546,6.546,0,0,0-4.961,1.927Q-63.468-25.748-63.468-21.894ZM-1.8,0V-57.072H11.07V0ZM-19.926-46.658V-57.892H29.192v11.234ZM49.528.9A24.284,24.284,0,0,1,38.007-1.763a19.914,19.914,0,0,1-7.913-7.421,20.381,20.381,0,0,1-2.87-10.742,20.392,20.392,0,0,1,2.829-10.7,20.394,20.394,0,0,1,7.667-7.421,21.955,21.955,0,0,1,10.906-2.706A20.846,20.846,0,0,1,59.04-38.212a18.506,18.506,0,0,1,7.093,7.052,20.416,20.416,0,0,1,2.583,10.332,21.957,21.957,0,0,1-.123,2.255,27.069,27.069,0,0,1-.451,2.747l-34.358.082v-8.61l29.028-.082L57.4-20.828a15.234,15.234,0,0,0-1.066-5.7,7.392,7.392,0,0,0-2.911-3.444,8.815,8.815,0,0,0-4.715-1.189,9.5,9.5,0,0,0-5.125,1.353,8.97,8.97,0,0,0-3.362,3.813,13.668,13.668,0,0,0-1.189,5.986A13.173,13.173,0,0,0,40.3-13.981a9.112,9.112,0,0,0,3.608,3.854,10.857,10.857,0,0,0,5.535,1.353A13.335,13.335,0,0,0,54.776-9.8a11.7,11.7,0,0,0,4.182-3.075l6.888,6.888A18.6,18.6,0,0,1,58.712-.82,23.894,23.894,0,0,1,49.528.9Zm46-.082a18.024,18.024,0,0,1-9.8-2.706,19.273,19.273,0,0,1-6.806-7.38,22.241,22.241,0,0,1-2.5-10.66,22.241,22.241,0,0,1,2.5-10.66,19.273,19.273,0,0,1,6.806-7.38,18.024,18.024,0,0,1,9.8-2.706,16.527,16.527,0,0,1,7.257,1.558,14.108,14.108,0,0,1,5.289,4.305,11.617,11.617,0,0,1,2.3,6.273v17.22a11.8,11.8,0,0,1-2.255,6.273,13.7,13.7,0,0,1-5.289,4.305A16.794,16.794,0,0,1,95.53.82ZM98.072-10.5a8.4,8.4,0,0,0,6.478-2.665,9.585,9.585,0,0,0,2.46-6.765,10.526,10.526,0,0,0-1.107-4.92,8.12,8.12,0,0,0-3.116-3.321,8.923,8.923,0,0,0-4.633-1.189,8.923,8.923,0,0,0-4.633,1.189,8.693,8.693,0,0,0-3.2,3.321,9.932,9.932,0,0,0-1.189,4.92,10.041,10.041,0,0,0,1.148,4.838,8.6,8.6,0,0,0,3.2,3.362A8.752,8.752,0,0,0,98.072-10.5ZM106.518,0V-10.742l1.886-9.676-1.886-9.676v-9.758h12.3V0Zm25.256,0V-39.852H144.32V0Zm25.5,0V-23.288A6.055,6.055,0,0,0,155.431-28a6.507,6.507,0,0,0-4.551-1.681,7.093,7.093,0,0,0-3.362.779,5.967,5.967,0,0,0-2.337,2.173,6.439,6.439,0,0,0-.861,3.444l-4.838-2.132a15.522,15.522,0,0,1,2.05-8.159,13.928,13.928,0,0,1,5.576-5.248,16.9,16.9,0,0,1,7.954-1.845,14.923,14.923,0,0,1,7.5,1.886,14.123,14.123,0,0,1,5.289,5.248,15.635,15.635,0,0,1,1.968,8.036V0Zm25.5,0V-23.288A6.055,6.055,0,0,0,180.933-28a6.507,6.507,0,0,0-4.551-1.681,7.093,7.093,0,0,0-3.362.779,5.967,5.967,0,0,0-2.337,2.173,6.439,6.439,0,0,0-.861,3.444l-7.216-.984a17.386,17.386,0,0,1,2.419-8.733,15.655,15.655,0,0,1,5.986-5.658,17.442,17.442,0,0,1,8.4-2.009,16.893,16.893,0,0,1,8.159,1.927,14.38,14.38,0,0,1,5.658,5.494,16.658,16.658,0,0,1,2.091,8.569V0Z" transform="translate(196.308 58.876)" fill="url(#linear-gradient)"/>
</svg>
