<svg xmlns="http://www.w3.org/2000/svg" width="24" height="24" viewBox="0 0 24 24">
  <g id="Ywitter" transform="translate(-1369 -15495)">
    <path id="instagram" d="M16.19,2H7.81C4.17,2,2,4.17,2,7.81v8.37C2,19.83,4.17,22,7.81,22h8.37c3.64,0,5.81-2.17,5.81-5.81V7.81C22,4.17,19.83,2,16.19,2Z" transform="translate(1369 15495)" fill="#55acee"/>
    <path id="twitter" d="M3.731,8.185A8.581,8.581,0,0,1,2.406,8.08,6.22,6.22,0,0,1,.593,7.42L0,7.1l.641-.211c.7-.231,1.128-.374,1.656-.6A2.2,2.2,0,0,1,1.165,4.975l-.149-.453.122.019A2.225,2.225,0,0,1,.86,4.2,2.11,2.11,0,0,1,.5,2.943l.028-.4.237.092a2.213,2.213,0,0,1-.214-.6A2.288,2.288,0,0,1,.8.5L1,.12l.276.331A5.076,5.076,0,0,0,4.566,2.3a1.967,1.967,0,0,1,.119-1.045,1.956,1.956,0,0,1,.8-.912A2.389,2.389,0,0,1,6.867,0,2.215,2.215,0,0,1,8.229.566,4.57,4.57,0,0,0,8.727.4c.109-.041.233-.088.388-.141l.571-.2L9.314,1.126l.076,0L10,1.093l-.361.493c-.021.028-.026.036-.033.047-.029.044-.065.1-.56.759A.932.932,0,0,0,8.872,3a5.741,5.741,0,0,1-.313,2.309,4.086,4.086,0,0,1-1.1,1.625,4.845,4.845,0,0,1-2.3,1.11,7.07,7.07,0,0,1-1.434.141Zm0,0" transform="translate(1376 15503)" fill="#fff"/>
    <rect id="Rectangle_56" data-name="Rectangle 56" width="24" height="24" transform="translate(1369 15495)" fill="none"/>
  </g>
</svg>
