<svg xmlns="http://www.w3.org/2000/svg" xmlns:xlink="http://www.w3.org/1999/xlink" width="438.7" height="76.342" viewBox="0 0 438.7 76.342">
  <defs>
    <linearGradient id="linear-gradient" x1="0.5" x2="0.5" y2="1" gradientUnits="objectBoundingBox">
      <stop offset="0" stop-color="#1e3c6b" stop-opacity="0.039"/>
      <stop offset="1" stop-color="#1e3c6b" stop-opacity="0"/>
    </linearGradient>
  </defs>
  <path id="Why_Texon" data-name="Why Texon" d="M-201.843,0l-18.614-57.892h12.792l13.612,44.526h-5l13.284-44.526h10.086L-162.4-13.366h-4.92l13.53-44.526h12.71L-159.695,0h-10.086l-13.366-44.526h4.756L-191.757,0Zm97.006,0V-22.714a6.82,6.82,0,0,0-1.927-5.043,6.612,6.612,0,0,0-4.879-1.927,7.338,7.338,0,0,0-3.608.861,6.262,6.262,0,0,0-2.46,2.46,7.3,7.3,0,0,0-.9,3.649l-4.838-2.378a16.547,16.547,0,0,1,1.968-8.2,13.7,13.7,0,0,1,5.494-5.453,16.655,16.655,0,0,1,8.118-1.927,16.831,16.831,0,0,1,8.2,1.927,13.648,13.648,0,0,1,5.453,5.33A15.785,15.785,0,0,1-92.291-25.5V0Zm-26.322,0V-59.532h12.546V0Zm63.3.164-16.4-40.016h13.53L-60.311-8.118h-5l10.66-31.734h13.53L-58.179.164ZM-78.1,16.81-66.133-9.02-58.179.164-65.231,16.81ZM1.435,0V-57.072H14.309V0ZM-16.687-46.658V-57.892H32.431v11.234ZM52.767.9A24.284,24.284,0,0,1,41.246-1.763a19.914,19.914,0,0,1-7.913-7.421,20.381,20.381,0,0,1-2.87-10.742,20.392,20.392,0,0,1,2.829-10.7,20.394,20.394,0,0,1,7.667-7.421,21.955,21.955,0,0,1,10.906-2.706,20.846,20.846,0,0,1,10.414,2.542,18.505,18.505,0,0,1,7.093,7.052,20.416,20.416,0,0,1,2.583,10.332,21.957,21.957,0,0,1-.123,2.255,27.069,27.069,0,0,1-.451,2.747l-34.358.082v-8.61l29.028-.082-5.412,3.608a15.234,15.234,0,0,0-1.066-5.7,7.392,7.392,0,0,0-2.911-3.444,8.815,8.815,0,0,0-4.715-1.189,9.5,9.5,0,0,0-5.125,1.353,8.97,8.97,0,0,0-3.362,3.813,13.668,13.668,0,0,0-1.189,5.986,13.173,13.173,0,0,0,1.271,6.027,9.112,9.112,0,0,0,3.608,3.854,10.857,10.857,0,0,0,5.535,1.353A13.335,13.335,0,0,0,58.015-9.8,11.7,11.7,0,0,0,62.2-12.874l6.888,6.888A18.6,18.6,0,0,1,61.951-.82,23.894,23.894,0,0,1,52.767.9ZM105.739,0,96.145-15.5,93.439-17.22,77.777-39.852H92.455l8.938,14.514,2.624,1.64L120.253,0Zm-28.7,0L93.357-23.206l7.134,8.036L90.733,0Zm26.9-17.3L96.8-25.338l9.02-14.514h13.612ZM147.231.9A22.547,22.547,0,0,1,136.12-1.845a20.66,20.66,0,0,1-7.831-7.5,20.229,20.229,0,0,1-2.87-10.66,19.806,19.806,0,0,1,2.87-10.578,20.953,20.953,0,0,1,7.79-7.421,22.482,22.482,0,0,1,11.152-2.747,22.754,22.754,0,0,1,11.152,2.706,20.534,20.534,0,0,1,7.79,7.421,20.017,20.017,0,0,1,2.87,10.619,20.229,20.229,0,0,1-2.87,10.66,20.744,20.744,0,0,1-7.79,7.5A22.482,22.482,0,0,1,147.231.9Zm0-11.4a9.308,9.308,0,0,0,4.756-1.189,7.984,7.984,0,0,0,3.157-3.362,10.777,10.777,0,0,0,1.107-4.961,9.979,9.979,0,0,0-1.148-4.879,8.473,8.473,0,0,0-3.157-3.28,9.086,9.086,0,0,0-4.715-1.189,9.144,9.144,0,0,0-4.674,1.189,8.314,8.314,0,0,0-3.2,3.321,10.217,10.217,0,0,0-1.148,4.92,10.282,10.282,0,0,0,1.148,4.879,8.249,8.249,0,0,0,3.2,3.362A9.144,9.144,0,0,0,147.231-10.5ZM205.7,0V-22.714a6.82,6.82,0,0,0-1.927-5.043,6.612,6.612,0,0,0-4.879-1.927,7.338,7.338,0,0,0-3.608.861,6.262,6.262,0,0,0-2.46,2.46,7.3,7.3,0,0,0-.9,3.649l-4.838-2.378a16.019,16.019,0,0,1,2.05-8.2,14.042,14.042,0,0,1,5.7-5.453,17.375,17.375,0,0,1,8.241-1.927,14.653,14.653,0,0,1,7.831,2.091,15.328,15.328,0,0,1,5.371,5.535,14.941,14.941,0,0,1,1.968,7.544V0ZM179.375,0V-39.852h12.546V0Z" transform="translate(220.457 59.532)" fill="url(#linear-gradient)"/>
</svg>
